<?xml version="1.0" encoding="UTF-8"?>
<svg xmlns="http://www.w3.org/2000/svg" xmlns:xlink="http://www.w3.org/1999/xlink" width="375pt" height="374.999991pt" viewBox="0 0 375 374.999991" version="1.2">
<defs>
<clipPath id="clip1">
  <path d="M 31.292969 27.992188 L 347.042969 27.992188 L 347.042969 343.742188 L 31.292969 343.742188 Z M 31.292969 27.992188 "/>
</clipPath>
</defs>
<g id="surface1">
<g clip-path="url(#clip1)" clip-rule="nonzero">
<path style=" stroke:none;fill-rule:nonzero;fill:rgb(0%,0%,0%);fill-opacity:1;" d="M 347.078125 185.882812 C 347.078125 273.117188 276.417969 343.777344 189.183594 343.777344 C 101.953125 343.777344 31.292969 273.117188 31.292969 185.882812 C 31.292969 98.652344 101.953125 27.992188 189.183594 27.992188 C 276.417969 27.992188 347.078125 98.652344 347.078125 185.882812 Z M 43.4375 185.882812 C 43.4375 266.347656 108.71875 331.628906 189.183594 331.628906 C 269.648438 331.628906 334.933594 266.347656 334.933594 185.882812 C 334.933594 105.417969 269.648438 40.136719 189.183594 40.136719 C 108.71875 40.136719 43.4375 105.417969 43.4375 185.882812 Z M 189.183594 125.15625 C 182.480469 125.15625 177.039062 119.714844 177.039062 113.011719 C 177.039062 106.304688 182.480469 100.863281 189.183594 100.863281 C 195.890625 100.863281 201.332031 106.304688 201.332031 113.011719 C 201.332031 119.714844 195.890625 125.15625 189.183594 125.15625 Z M 195.257812 149.445312 C 198.609375 149.445312 201.332031 152.167969 201.332031 155.519531 L 201.332031 246.613281 L 207.402344 246.613281 C 210.753906 246.613281 213.476562 249.332031 213.476562 252.683594 C 213.476562 256.035156 210.753906 258.757812 207.402344 258.757812 L 170.964844 258.757812 C 167.613281 258.757812 164.894531 256.035156 164.894531 252.683594 C 164.894531 249.332031 167.613281 246.613281 170.964844 246.613281 L 177.039062 246.613281 L 177.039062 161.59375 L 170.964844 161.59375 C 167.613281 161.59375 164.894531 158.871094 164.894531 155.519531 C 164.894531 152.167969 167.613281 149.445312 170.964844 149.445312 Z M 195.257812 149.445312 "/>
</g>
</g>
</svg>
