<?xml version="1.0" encoding="UTF-8"?>
<svg xmlns="http://www.w3.org/2000/svg" xmlns:xlink="http://www.w3.org/1999/xlink" width="375pt" height="374.999991pt" viewBox="0 0 375 374.999991" version="1.2">
<defs>
<clipPath id="clip1">
  <path d="M 101.308594 129.707031 L 251.300781 129.707031 L 251.300781 204.828125 L 101.308594 204.828125 Z M 101.308594 129.707031 "/>
</clipPath>
<clipPath id="clip2">
  <path d="M 132.171875 182.632812 L 220.425781 182.632812 L 220.425781 242.210938 L 132.171875 242.210938 Z M 132.171875 182.632812 "/>
</clipPath>
<clipPath id="clip3">
  <path d="M 132 92.210938 L 221 92.210938 L 221 139 L 132 139 Z M 132 92.210938 "/>
</clipPath>
<clipPath id="clip4">
  <path d="M 18.40625 98.15625 L 362.636719 98.15625 L 362.636719 270.558594 L 18.40625 270.558594 Z M 18.40625 98.15625 "/>
</clipPath>
<clipPath id="clip5">
  <path d="M 89.238281 219.621094 L 291.78125 219.621094 L 291.78125 356.351562 L 89.238281 356.351562 Z M 89.238281 219.621094 "/>
</clipPath>
<clipPath id="clip6">
  <path d="M 89 12.105469 L 292 12.105469 L 292 119 L 89 119 Z M 89 12.105469 "/>
</clipPath>
</defs>
<g id="surface1">
<g clip-path="url(#clip1)" clip-rule="nonzero">
<path style=" stroke:none;fill-rule:nonzero;fill:rgb(100%,100%,100%);fill-opacity:1;" d="M 224.832031 158.382812 C 222.394531 158.382812 220.421875 156.40625 220.421875 153.972656 C 220.421875 151.535156 222.394531 149.558594 224.832031 149.558594 C 227.269531 149.558594 229.242188 151.535156 229.242188 153.972656 C 229.242188 156.40625 227.269531 158.382812 224.832031 158.382812 Z M 211.597656 158.382812 C 209.160156 158.382812 207.1875 156.40625 207.1875 153.972656 C 207.1875 151.535156 209.160156 149.558594 211.597656 149.558594 C 214.035156 149.558594 216.007812 151.535156 216.007812 153.972656 C 216.007812 156.40625 214.035156 158.382812 211.597656 158.382812 Z M 141.011719 158.382812 L 127.777344 158.382812 C 125.34375 158.382812 123.367188 156.40625 123.367188 153.972656 C 123.367188 151.535156 125.34375 149.558594 127.777344 149.558594 L 141.011719 149.558594 C 143.449219 149.558594 145.425781 151.535156 145.425781 153.972656 C 145.425781 156.40625 143.449219 158.382812 141.011719 158.382812 Z M 240.273438 129.769531 L 224.832031 129.769531 L 224.832031 134.179688 L 233.65625 134.179688 L 233.65625 138.59375 C 233.65625 141.027344 231.679688 143.003906 229.242188 143.003906 L 123.367188 143.003906 C 120.929688 143.003906 118.957031 141.027344 118.957031 138.59375 L 118.957031 134.179688 L 127.777344 134.179688 L 127.777344 129.769531 L 112.339844 129.769531 C 106.246094 129.769531 101.308594 134.707031 101.308594 140.796875 L 101.308594 193.734375 C 101.308594 199.828125 106.246094 204.765625 112.339844 204.765625 L 127.777344 204.765625 L 127.777344 196.234375 L 125.574219 196.234375 C 124.355469 196.234375 123.367188 195.230469 123.367188 193.988281 L 123.367188 189.488281 C 123.367188 188.246094 122.378906 187.238281 121.160156 187.238281 L 114.542969 187.238281 C 113.324219 187.238281 112.339844 186.234375 112.339844 184.992188 L 112.339844 180.492188 C 112.339844 179.25 113.324219 178.242188 114.542969 178.242188 L 238.066406 178.242188 C 239.285156 178.242188 240.273438 179.25 240.273438 180.492188 L 240.273438 184.992188 C 240.273438 186.234375 239.285156 187.238281 238.066406 187.238281 L 231.449219 187.238281 C 230.230469 187.238281 229.242188 188.246094 229.242188 189.488281 L 229.242188 193.988281 C 229.242188 195.230469 228.257812 196.234375 227.039062 196.234375 L 224.832031 196.234375 L 224.832031 204.765625 L 240.273438 204.765625 C 246.363281 204.765625 251.300781 199.828125 251.300781 193.734375 L 251.300781 140.796875 C 251.300781 134.707031 246.363281 129.769531 240.273438 129.769531 "/>
</g>
<g clip-path="url(#clip2)" clip-rule="nonzero">
<path style=" stroke:none;fill-rule:nonzero;fill:rgb(100%,100%,100%);fill-opacity:1;" d="M 200.566406 202.921875 L 152.042969 202.921875 C 149.605469 202.921875 147.628906 200.949219 147.628906 198.511719 C 147.628906 196.074219 149.605469 194.101562 152.042969 194.101562 L 200.566406 194.101562 C 203.003906 194.101562 204.980469 196.074219 204.980469 198.511719 C 204.980469 200.949219 203.003906 202.921875 200.566406 202.921875 Z M 200.566406 217.261719 L 152.042969 217.261719 C 149.605469 217.261719 147.628906 215.285156 147.628906 212.851562 C 147.628906 210.414062 149.605469 208.4375 152.042969 208.4375 L 200.566406 208.4375 C 203.003906 208.4375 204.980469 210.414062 204.980469 212.851562 C 204.980469 215.285156 203.003906 217.261719 200.566406 217.261719 Z M 200.566406 231.597656 L 152.042969 231.597656 C 149.605469 231.597656 147.628906 229.625 147.628906 227.1875 C 147.628906 224.75 149.605469 222.777344 152.042969 222.777344 L 200.566406 222.777344 C 203.003906 222.777344 204.980469 224.75 204.980469 227.1875 C 204.980469 229.625 203.003906 231.597656 200.566406 231.597656 Z M 132.191406 182.65625 L 132.191406 237.800781 C 132.191406 240.238281 134.164062 242.210938 136.601562 242.210938 L 216.007812 242.210938 C 218.445312 242.210938 220.421875 240.238281 220.421875 237.800781 L 220.421875 182.65625 L 132.191406 182.65625 "/>
</g>
<g clip-path="url(#clip3)" clip-rule="nonzero">
<path style=" stroke:none;fill-rule:nonzero;fill:rgb(100%,100%,100%);fill-opacity:1;" d="M 216.007812 92.210938 L 136.601562 92.210938 C 134.164062 92.210938 132.191406 94.1875 132.191406 96.621094 L 132.191406 138.53125 L 220.421875 138.53125 L 220.421875 96.621094 C 220.421875 94.1875 218.445312 92.210938 216.007812 92.210938 "/>
</g>
<g clip-path="url(#clip4)" clip-rule="nonzero">
<path style=" stroke:none;fill-rule:nonzero;fill:rgb(0%,0%,0%);fill-opacity:1;" d="M 301.894531 163.96875 C 296.300781 163.96875 291.769531 159.4375 291.769531 153.84375 C 291.769531 148.253906 296.300781 143.71875 301.894531 143.71875 C 307.484375 143.71875 312.015625 148.253906 312.015625 153.84375 C 312.015625 159.4375 307.484375 163.96875 301.894531 163.96875 Z M 271.519531 163.96875 C 265.925781 163.96875 261.394531 159.4375 261.394531 153.84375 C 261.394531 148.253906 265.925781 143.71875 271.519531 143.71875 C 277.109375 143.71875 281.640625 148.253906 281.640625 153.84375 C 281.640625 159.4375 277.109375 163.96875 271.519531 163.96875 Z M 109.527344 163.96875 L 79.15625 163.96875 C 73.5625 163.96875 69.03125 159.4375 69.03125 153.84375 C 69.03125 148.253906 73.5625 143.71875 79.15625 143.71875 L 109.527344 143.71875 C 115.117188 143.71875 119.652344 148.253906 119.652344 153.84375 C 119.652344 159.4375 115.117188 163.96875 109.527344 163.96875 Z M 337.328125 98.296875 L 301.894531 98.296875 L 301.894531 108.421875 L 322.140625 108.421875 L 322.140625 118.546875 C 322.140625 124.136719 317.605469 128.671875 312.015625 128.671875 L 69.03125 128.671875 C 63.4375 128.671875 58.90625 124.136719 58.90625 118.546875 L 58.90625 108.421875 L 79.15625 108.421875 L 79.15625 98.296875 L 43.71875 98.296875 C 29.738281 98.296875 18.40625 109.628906 18.40625 123.609375 L 18.40625 245.101562 C 18.40625 259.082031 29.738281 270.414062 43.71875 270.414062 L 79.15625 270.414062 L 79.15625 250.839844 L 74.09375 250.839844 C 71.296875 250.839844 69.03125 248.53125 69.03125 245.679688 L 69.03125 235.355469 C 69.03125 232.503906 66.765625 230.195312 63.96875 230.195312 L 48.78125 230.195312 C 45.984375 230.195312 43.71875 227.882812 43.71875 225.035156 L 43.71875 214.710938 C 43.71875 211.859375 45.984375 209.550781 48.78125 209.550781 L 332.265625 209.550781 C 335.0625 209.550781 337.328125 211.859375 337.328125 214.710938 L 337.328125 225.035156 C 337.328125 227.882812 335.0625 230.195312 332.265625 230.195312 L 317.078125 230.195312 C 314.28125 230.195312 312.015625 232.503906 312.015625 235.355469 L 312.015625 245.679688 C 312.015625 248.53125 309.75 250.839844 306.953125 250.839844 L 301.894531 250.839844 L 301.894531 270.414062 L 337.328125 270.414062 C 351.304688 270.414062 362.636719 259.082031 362.636719 245.101562 L 362.636719 123.609375 C 362.636719 109.628906 351.304688 98.296875 337.328125 98.296875 "/>
</g>
<g clip-path="url(#clip5)" clip-rule="nonzero">
<path style=" stroke:none;fill-rule:nonzero;fill:rgb(0%,0%,0%);fill-opacity:1;" d="M 246.207031 266.191406 L 134.835938 266.191406 C 129.246094 266.191406 124.714844 261.660156 124.714844 256.066406 C 124.714844 250.472656 129.246094 245.941406 134.835938 245.941406 L 246.207031 245.941406 C 251.800781 245.941406 256.332031 250.472656 256.332031 256.066406 C 256.332031 261.660156 251.800781 266.191406 246.207031 266.191406 Z M 246.207031 299.09375 L 134.835938 299.09375 C 129.246094 299.09375 124.714844 294.5625 124.714844 288.972656 C 124.714844 283.378906 129.246094 278.847656 134.835938 278.847656 L 246.207031 278.847656 C 251.800781 278.847656 256.332031 283.378906 256.332031 288.972656 C 256.332031 294.5625 251.800781 299.09375 246.207031 299.09375 Z M 246.207031 332 L 134.835938 332 C 129.246094 332 124.714844 327.46875 124.714844 321.875 C 124.714844 316.285156 129.246094 311.75 134.835938 311.75 L 246.207031 311.75 C 251.800781 311.75 256.332031 316.285156 256.332031 321.875 C 256.332031 327.46875 251.800781 332 246.207031 332 Z M 89.277344 219.675781 L 89.277344 346.230469 C 89.277344 351.824219 93.8125 356.355469 99.402344 356.355469 L 281.640625 356.355469 C 287.234375 356.355469 291.765625 351.824219 291.765625 346.230469 L 291.765625 219.675781 L 89.277344 219.675781 "/>
</g>
<g clip-path="url(#clip6)" clip-rule="nonzero">
<path style=" stroke:none;fill-rule:nonzero;fill:rgb(0%,0%,0%);fill-opacity:1;" d="M 281.640625 12.105469 L 99.402344 12.105469 C 93.8125 12.105469 89.277344 16.636719 89.277344 22.226562 L 89.277344 118.410156 L 291.765625 118.410156 L 291.765625 22.226562 C 291.765625 16.636719 287.234375 12.105469 281.640625 12.105469 "/>
</g>
</g>
</svg>
