<?xml version="1.0" encoding="UTF-8"?>
<svg xmlns="http://www.w3.org/2000/svg" xmlns:xlink="http://www.w3.org/1999/xlink" width="375pt" height="374.999991pt" viewBox="0 0 375 374.999991" version="1.2">
<defs>
<clipPath id="clip1">
  <path d="M 3.550781 62.078125 L 371.800781 62.078125 L 371.800781 312.242188 L 3.550781 312.242188 Z M 3.550781 62.078125 "/>
</clipPath>
</defs>
<g id="surface1">
<g clip-path="url(#clip1)" clip-rule="nonzero">
<path style=" stroke:none;fill-rule:nonzero;fill:rgb(0%,0%,0%);fill-opacity:1;" d="M 187.851562 62.078125 C 104.078125 62.078125 32.535156 113.945312 3.550781 187.160156 C 32.535156 260.375 104.078125 312.242188 187.851562 312.242188 C 271.625 312.242188 343.167969 260.375 372.152344 187.160156 C 343.167969 113.945312 271.707031 62.078125 187.851562 62.078125 Z M 187.851562 270.546875 C 141.609375 270.546875 104.078125 233.191406 104.078125 187.160156 C 104.078125 141.128906 141.609375 103.773438 187.851562 103.773438 C 234.09375 103.773438 271.625 141.128906 271.625 187.160156 C 271.625 233.191406 234.09375 270.546875 187.851562 270.546875 Z M 187.851562 137.128906 C 160.121094 137.128906 137.585938 159.558594 137.585938 187.160156 C 137.585938 214.761719 160.121094 237.191406 187.851562 237.191406 C 215.582031 237.191406 238.117188 214.761719 238.117188 187.160156 C 238.117188 159.558594 215.582031 137.128906 187.851562 137.128906 Z M 187.851562 137.128906 "/>
</g>
</g>
</svg>
