<?xml version="1.0" encoding="utf-8"?>
<!-- Generator: Adobe Illustrator 19.0.0, SVG Export Plug-In . SVG Version: 6.00 Build 0)  -->
<svg version="1.1" id="Layer_1" xmlns="http://www.w3.org/2000/svg" xmlns:xlink="http://www.w3.org/1999/xlink" x="0px" y="0px"
	 viewBox="-118 209 375 375" style="enable-background:new -118 209 375 375;" xml:space="preserve">
<style type="text/css">
	.st0{clip-path:url(#SVGID_2_);}
	.st1{fill:none;}
</style>
<g>
	<defs>
		<rect id="SVGID_1_" x="-37" y="235.6" width="169" height="167.4"/>
	</defs>
	<clipPath id="SVGID_2_">
		<use xlink:href="#SVGID_1_"  style="overflow:visible;"/>
	</clipPath>
	<g class="st0">
		<path d="M131,318.8c0,1.4,0,2.7-0.1,4.1c-0.1,1.4-0.2,2.7-0.3,4.1s-0.3,2.7-0.5,4.1c-0.2,1.4-0.4,2.7-0.7,4
			c-0.3,1.3-0.6,2.7-0.9,4s-0.7,2.6-1.1,4c-0.4,1.3-0.8,2.6-1.3,3.9s-1,2.6-1.5,3.8s-1.1,2.5-1.7,3.8s-1.2,2.5-1.8,3.7
			c-0.6,1.2-1.3,2.4-2,3.6c-0.7,1.2-1.4,2.3-2.2,3.5c-0.8,1.1-1.5,2.3-2.4,3.4c-0.8,1.1-1.7,2.2-2.5,3.2c-0.9,1.1-1.8,2.1-2.7,3.1
			c-0.9,1-1.9,2-2.8,3c-1,1-2,1.9-3,2.8c-1,0.9-2.1,1.8-3.1,2.7c-1.1,0.9-2.1,1.7-3.2,2.5c-1.1,0.8-2.2,1.6-3.4,2.4
			s-2.3,1.5-3.5,2.2c-1.2,0.7-2.4,1.4-3.6,2c-1.2,0.6-2.4,1.3-3.7,1.8s-2.5,1.1-3.8,1.7c-1.3,0.5-2.5,1-3.8,1.5s-2.6,0.9-3.9,1.3
			c-1.3,0.4-2.6,0.8-4,1.1s-2.7,0.6-4,0.9c-1.3,0.3-2.7,0.5-4,0.7c-1.4,0.2-2.7,0.4-4.1,0.5s-2.7,0.2-4.1,0.3
			c-1.4,0.1-2.7,0.1-4.1,0.1c-1.4,0-2.7,0-4.1-0.1c-1.4-0.1-2.7-0.2-4.1-0.3s-2.7-0.3-4.1-0.5c-1.4-0.2-2.7-0.4-4-0.7
			c-1.3-0.3-2.7-0.6-4-0.9s-2.6-0.7-4-1.1c-1.3-0.4-2.6-0.8-3.9-1.3s-2.6-1-3.8-1.5c-1.3-0.5-2.5-1.1-3.8-1.7
			c-1.2-0.6-2.5-1.2-3.7-1.8c-1.2-0.6-2.4-1.3-3.6-2c-1.2-0.7-2.3-1.4-3.5-2.2c-1.1-0.8-2.3-1.6-3.4-2.4c-1.1-0.8-2.2-1.7-3.2-2.5
			c-1.1-0.9-2.1-1.8-3.1-2.7c-1-0.9-2-1.9-3-2.8c-1-1-1.9-2-2.8-3s-1.8-2.1-2.7-3.1c-0.9-1.1-1.7-2.1-2.5-3.2
			c-0.8-1.1-1.6-2.2-2.4-3.4s-1.5-2.3-2.2-3.5c-0.7-1.2-1.4-2.4-2-3.6c-0.6-1.2-1.3-2.4-1.8-3.7s-1.1-2.5-1.7-3.8s-1-2.5-1.5-3.8
			c-0.5-1.3-0.9-2.6-1.3-3.9c-0.4-1.3-0.8-2.6-1.1-4c-0.3-1.3-0.6-2.7-0.9-4s-0.5-2.7-0.7-4c-0.2-1.4-0.4-2.7-0.5-4.1
			c-0.1-1.4-0.2-2.7-0.3-4.1s-0.1-2.7-0.1-4.1c0-1.4,0-2.7,0.1-4.1c0.1-1.4,0.2-2.7,0.3-4.1c0.1-1.4,0.3-2.7,0.5-4.1
			c0.2-1.4,0.4-2.7,0.7-4s0.6-2.7,0.9-4c0.3-1.3,0.7-2.6,1.1-4c0.4-1.3,0.8-2.6,1.3-3.9c0.5-1.3,1-2.6,1.5-3.8s1.1-2.5,1.7-3.8
			s1.2-2.5,1.8-3.7c0.6-1.2,1.3-2.4,2-3.6s1.4-2.3,2.2-3.5c0.8-1.1,1.6-2.3,2.4-3.4c0.8-1.1,1.7-2.2,2.5-3.2
			c0.9-1.1,1.8-2.1,2.7-3.1c0.9-1,1.9-2,2.8-3s2-1.9,3-2.8c1-0.9,2.1-1.8,3.1-2.7c1.1-0.9,2.1-1.7,3.2-2.5c1.1-0.8,2.2-1.6,3.4-2.4
			c1.1-0.8,2.3-1.5,3.5-2.2s2.4-1.4,3.6-2c1.2-0.6,2.4-1.3,3.7-1.8c1.2-0.6,2.5-1.1,3.8-1.7s2.5-1,3.8-1.5c1.3-0.5,2.6-0.9,3.9-1.3
			c1.3-0.4,2.6-0.8,4-1.1s2.7-0.6,4-0.9c1.3-0.3,2.7-0.5,4-0.7c1.4-0.2,2.7-0.4,4.1-0.5c1.4-0.1,2.7-0.2,4.1-0.3
			c1.4-0.1,2.7-0.1,4.1-0.1c1.4,0,2.7,0,4.1,0.1s2.7,0.2,4.1,0.3c1.4,0.1,2.7,0.3,4.1,0.5s2.7,0.4,4,0.7c1.3,0.3,2.7,0.6,4,0.9
			s2.6,0.7,4,1.1c1.3,0.4,2.6,0.8,3.9,1.3c1.3,0.5,2.6,1,3.8,1.5s2.5,1.1,3.8,1.7s2.5,1.2,3.7,1.8s2.4,1.3,3.6,2s2.3,1.4,3.5,2.2
			c1.1,0.8,2.3,1.5,3.4,2.4c1.1,0.8,2.2,1.7,3.2,2.5s2.1,1.8,3.1,2.7c1,0.9,2,1.9,3,2.8s1.9,2,2.8,3c0.9,1,1.8,2.1,2.7,3.1
			c0.9,1.1,1.7,2.1,2.5,3.2c0.8,1.1,1.6,2.2,2.4,3.4c0.8,1.1,1.5,2.3,2.2,3.5s1.4,2.4,2,3.6c0.6,1.2,1.3,2.4,1.8,3.7
			s1.1,2.5,1.7,3.8s1,2.5,1.5,3.8s0.9,2.6,1.3,3.9c0.4,1.3,0.8,2.6,1.1,4s0.6,2.7,0.9,4c0.3,1.3,0.5,2.7,0.7,4
			c0.2,1.4,0.4,2.7,0.5,4.1s0.2,2.7,0.3,4.1C131,316.1,131,317.4,131,318.8z"/>
	</g>
</g>
<path d="M77.1,491.6c0,5.1,0.5,10.1,1.5,15c1,5,2.4,9.8,4.3,14.5c1.9,4.7,4.3,9.1,7,13.4c2.8,4.2,5.9,8.1,9.5,11.8
	c-16.9,4.9-34.2,7.4-51.8,7.3c-5.2,0-10.5-0.3-15.7-0.7c-5.2-0.5-10.4-1.1-15.6-2c-5.2-0.9-10.3-1.9-15.4-3.2s-10.1-2.7-15.1-4.4
	c-5-1.7-9.9-3.5-14.7-5.6c-4.8-2.1-9.6-4.3-14.2-6.7s-9.2-5-13.6-7.8s-8.8-5.7-13-8.9c-1.5-1.1-2.9-2.4-4.1-3.9
	c-1.2-1.5-2.3-3-3.1-4.8s-1.5-3.5-1.9-5.3c-0.4-1.9-0.7-3.7-0.6-5.6c0-2.6,0.2-5.1,0.4-7.7c0.2-2.6,0.5-5.1,0.9-7.7s0.9-5.1,1.5-7.6
	c0.6-2.5,1.2-5,2-7.5c0.7-2.5,1.6-4.9,2.5-7.3c0.9-2.4,1.9-4.8,3-7.1c1.1-2.3,2.2-4.6,3.5-6.9c1.2-2.3,2.6-4.5,4-6.6
	c1.4-2.2,2.9-4.3,4.4-6.3c1.5-2.1,3.2-4.1,4.8-6c1.7-2,3.4-3.8,5.2-5.7c1.8-1.8,3.7-3.6,5.6-5.3s3.9-3.3,6-4.9c2-1.6,4.1-3,6.3-4.5
	c2.2-1.4,4.3-2.8,6.6-4s4.5-2.4,6.9-3.5c2.2,1.8,4.5,3.5,6.9,5.1c2.4,1.6,4.8,3.1,7.3,4.5s5,2.7,7.6,3.9c2.6,1.2,5.2,2.3,7.9,3.2
	s5.4,1.8,8.2,2.5c2.8,0.7,5.6,1.3,8.4,1.8c2.8,0.5,5.6,0.9,8.5,1.1c2.8,0.2,5.7,0.4,8.6,0.4c2.9,0,5.7-0.1,8.6-0.4
	c2.9-0.2,5.7-0.6,8.5-1.1s5.6-1.1,8.4-1.8s5.5-1.6,8.2-2.5c2.7-1,5.3-2,7.9-3.2c2.6-1.2,5.1-2.5,7.6-3.9s4.9-2.9,7.3-4.5
	c2.4-1.6,4.6-3.3,6.9-5.1c8.9,3.9,17.1,9.1,24.5,15.4c1.2,1,2,2.2,2.4,3.8c-2.1,0.5-4.2,1.1-6.3,1.7s-4.1,1.4-6.2,2.3
	c-2,0.8-4,1.8-5.9,2.8c-1.9,1-3.8,2.1-5.7,3.3c-1.9,1.2-3.7,2.4-5.4,3.7c-1.8,1.3-3.4,2.7-5.1,4.2s-3.2,3-4.7,4.6
	c-1.5,1.6-2.9,3.3-4.3,5c-1.4,1.7-2.6,3.5-3.9,5.3s-2.3,3.7-3.4,5.6c-1.1,1.9-2,3.9-2.9,5.9c-0.9,2-1.7,4-2.4,6.1
	c-0.7,2.1-1.3,4.2-1.9,6.3c-0.5,2.1-1,4.3-1.3,6.4s-0.6,4.3-0.8,6.5S77,489.4,77.1,491.6z"/>
<g id="surface1_2_">
	<g>
		<defs>
			<rect id="SVGID_3_" x="167.5" y="319.3" width="59.5" height="96.3"/>
		</defs>
		<clipPath id="SVGID_4_">
			<use xlink:href="#SVGID_3_"  style="overflow:visible;"/>
		</clipPath>
	</g>
</g>
<g>
	<path d="M175.1,514.3h-38.6c-1.3,0-2.3,1-2.3,2.3c0,1.2,1,2.3,2.3,2.3h38.6c1.3,0,2.3-1,2.3-2.3
		C177.3,515.3,176.3,514.3,175.1,514.3z"/>
	<path d="M175.1,480.2h-38.6c-1.3,0-2.3,1-2.3,2.3c0,1.3,1,2.3,2.3,2.3h38.6c1.3,0,2.3-1,2.3-2.3
		C177.3,481.3,176.3,480.2,175.1,480.2z"/>
	<path d="M217.3,487.8c-0.1-1.3-0.2-2.6-0.4-3.9c-0.2-1.3-0.4-2.6-0.6-3.9c-0.2-1.3-0.5-2.6-0.8-3.8s-0.7-2.5-1.1-3.8
		c-0.4-1.2-0.8-2.5-1.3-3.7c-0.5-1.2-1-2.4-1.5-3.6s-1.1-2.3-1.8-3.5c-0.6-1.1-1.3-2.3-2-3.4c-0.7-1.1-1.4-2.2-2.2-3.2
		c-0.8-1.1-1.6-2.1-2.4-3.1c-0.8-1-1.7-2-2.6-2.9c-0.9-1-1.8-1.9-2.8-2.8c-0.9-0.9-1.9-1.8-2.9-2.6s-2-1.6-3.1-2.4s-2.1-1.5-3.2-2.2
		c-1.1-0.7-2.2-1.4-3.4-2c-1.1-0.6-2.3-1.2-3.5-1.8s-2.4-1.1-3.6-1.6c-1.2-0.5-2.4-0.9-3.7-1.3c-1.2-0.4-2.5-0.8-3.8-1.1
		c-1.3-0.3-2.5-0.6-3.8-0.8c-1.3-0.2-2.6-0.4-3.9-0.6s-2.6-0.3-3.9-0.4c-1.3-0.1-2.6-0.1-3.9-0.1c-4.8,0-9.4,0.5-14,1.6
		c-1.3,0.3-2.5,0.6-3.8,1c-1.2,0.4-2.5,0.8-3.7,1.2c-1.2,0.5-2.4,0.9-3.6,1.5c-1.2,0.5-2.4,1.1-3.5,1.7c-1.2,0.6-2.3,1.2-3.4,1.9
		c-1.1,0.7-2.2,1.4-3.3,2.1c-1.1,0.7-2.1,1.5-3.1,2.3c-1,0.8-2,1.7-3,2.5s-1.9,1.8-2.8,2.7s-1.8,1.9-2.6,2.9s-1.7,2-2.4,3
		c-0.8,1-1.5,2.1-2.3,3.2c-0.7,1.1-1.4,2.2-2,3.3c-0.6,1.1-1.3,2.3-1.8,3.4c-0.6,1.2-1.1,2.4-1.6,3.6s-1,2.4-1.4,3.7
		c-0.4,1.2-0.8,2.5-1.2,3.7s-0.6,2.5-0.9,3.8c-0.3,1.3-0.5,2.6-0.7,3.8c-0.2,1.3-0.3,2.6-0.4,3.9c-0.1,1.3-0.2,2.6-0.2,3.9
		c0,1.3,0,2.6,0.1,3.9c0.1,1.3,0.2,2.6,0.3,3.9c0.1,1.3,0.3,2.6,0.6,3.9c0.2,1.3,0.5,2.6,0.8,3.8c0.3,1.3,0.7,2.5,1,3.8
		c0.4,1.2,0.8,2.5,1.3,3.7c0.5,1.2,1,2.4,1.5,3.6s1.1,2.4,1.7,3.5c0.6,1.2,1.3,2.3,1.9,3.4s1.4,2.2,2.2,3.3c0.8,1.1,1.5,2.1,2.4,3.1
		c0.8,1,1.7,2,2.5,3c0.9,1,1.8,1.9,2.7,2.8c0.9,0.9,1.9,1.8,2.9,2.6c1,0.8,2,1.7,3.1,2.4s2.1,1.5,3.2,2.2c1.1,0.7,2.2,1.4,3.3,2
		s2.3,1.2,3.5,1.8s2.4,1.1,3.6,1.6c1.2,0.5,2.4,0.9,3.7,1.4c1.2,0.4,2.5,0.8,3.7,1.1c1.3,0.3,2.5,0.6,3.8,0.9
		c1.3,0.3,2.6,0.5,3.9,0.6c1.3,0.2,2.6,0.3,3.9,0.4c1.3,0.1,2.6,0.1,3.9,0.2c1.3,0,2.6,0,3.9-0.1c1.3-0.1,2.6-0.2,3.9-0.3
		c1.3-0.2,2.6-0.3,3.9-0.6c1.3-0.2,2.6-0.5,3.8-0.8c1.3-0.3,2.5-0.7,3.8-1.1c1.2-0.4,2.5-0.8,3.7-1.3c1.2-0.5,2.4-1,3.6-1.5
		c1.2-0.5,2.3-1.1,3.5-1.7c1.1-0.6,2.3-1.3,3.4-2c1.1-0.7,2.2-1.4,3.3-2.2c1.1-0.8,2.1-1.5,3.1-2.4s2-1.7,2.9-2.6
		c1-0.9,1.9-1.8,2.8-2.7c0.9-0.9,1.8-1.9,2.6-2.9c0.8-1,1.6-2,2.4-3.1s1.5-2.1,2.2-3.2s1.4-2.2,2-3.4s1.2-2.3,1.8-3.5
		c0.6-1.2,1.1-2.4,1.6-3.6c0.5-1.2,0.9-2.4,1.3-3.7c0.4-1.2,0.8-2.5,1.1-3.7c0.3-1.3,0.6-2.5,0.9-3.8c0.3-1.3,0.5-2.6,0.6-3.9
		c0.2-1.3,0.3-2.6,0.4-3.9s0.1-2.6,0.1-3.9C217.4,490.4,217.4,489.1,217.3,487.8z M138.7,454.1c0-1.3,1-2.3,2.3-2.3h8
		c1.3,0,2.3-1,2.3-2.3v-2.3c0-1.2,0.5-2.4,1.4-3.3c0.9-0.8,2-1.2,3.3-1.2c2.4,0.1,4.4,2.3,4.4,4.8v2c0,1.2,1,2.3,2.3,2.3h8
		c1.3,0,2.3,1,2.3,2.3v2.3c0,1.2-1,2.3-2.3,2.3H141c-1.3,0-2.3-1-2.3-2.3V454.1z M184.2,532.5c0,1.3-1,2.3-2.3,2.3h-52.3
		c-1.3,0-2.3-1-2.3-2.3v-72.7c0-1.2,1-2.3,2.3-2.3h4.7c0.6,3.2,3.3,5.7,6.7,5.7h29.6c3.4,0,6.1-2.5,6.7-5.7h4.7c1.3,0,2.3,1,2.3,2.3
		V532.5z"/>
	<path d="M175.1,491.6h-38.6c-1.3,0-2.3,1-2.3,2.3c0,1.2,1,2.3,2.3,2.3h38.6c1.3,0,2.3-1,2.3-2.3
		C177.3,492.6,176.3,491.6,175.1,491.6z"/>
	<path d="M175.1,503h-38.6c-1.3,0-2.3,1-2.3,2.3c0,1.2,1,2.3,2.3,2.3h38.6c1.3,0,2.3-1,2.3-2.3C177.3,504,176.3,503,175.1,503z"/>
	<path class="st1" d="M181.9,457.5h-4.7c-0.6,3.2-3.3,5.7-6.7,5.7H141c-3.4,0-6.1-2.5-6.7-5.7h-4.7c-1.3,0-2.3,1-2.3,2.3v72.7
		c0,1.3,1,2.3,2.3,2.3h52.3c1.3,0,2.3-1,2.3-2.3v-72.7C184.2,458.6,183.1,457.5,181.9,457.5z M175.1,518.9h-38.6
		c-1.3,0-2.3-1-2.3-2.3c0-1.2,1-2.3,2.3-2.3h38.6c1.3,0,2.3,1,2.3,2.3C177.3,517.8,176.3,518.9,175.1,518.9z M175.1,507.5h-38.6
		c-1.3,0-2.3-1-2.3-2.3c0-1.2,1-2.3,2.3-2.3h38.6c1.3,0,2.3,1,2.3,2.3C177.3,506.5,176.3,507.5,175.1,507.5z M175.1,496.1h-38.6
		c-1.3,0-2.3-1-2.3-2.3c0-1.2,1-2.3,2.3-2.3h38.6c1.3,0,2.3,1,2.3,2.3C177.3,495.1,176.3,496.1,175.1,496.1z M175.1,484.8h-38.6
		c-1.3,0-2.3-1-2.3-2.3c0-1.2,1-2.3,2.3-2.3h38.6c1.3,0,2.3,1,2.3,2.3C177.3,483.8,176.3,484.8,175.1,484.8z"/>
	<path class="st1" d="M141,458.7h29.6c1.3,0,2.3-1,2.3-2.3v-2.3c0-1.3-1-2.3-2.3-2.3h-8c-1.3,0-2.3-1-2.3-2.3v-2
		c0-2.5-2-4.7-4.4-4.8c-1.3,0-2.4,0.5-3.3,1.2c-0.9,0.9-1.4,2-1.4,3.3v2.3c0,1.2-1,2.3-2.3,2.3h-8c-1.3,0-2.3,1-2.3,2.3v2.3
		C138.7,457.6,139.7,458.7,141,458.7z"/>
</g>
</svg>
