<svg xmlns="http://www.w3.org/2000/svg" viewBox="0 0 141.36 172.69"><defs><style>.cls-1{fill:#0999d6;}.cls-2{fill:#16549d;}</style></defs><g id="Layer_2" data-name="Layer 2"><g id="Layer_1-2" data-name="Layer 1"><rect class="cls-1" y="159.18" width="141.36" height="0.41"/><rect class="cls-1" y="172.28" width="141.36" height="0.41"/><path class="cls-2" d="M0,68c0,12.49,3.19,34.14,14.9,49.25,15.32,19.79,37.69,33.28,54.32,38.38V143.31C49.61,136.88,22.88,123.2,7.06,94.2c0,0,19.9,31.85,62.16,43.39V125.26c-13-3.38-25.66-8.09-35.14-14.62C6.91,93.4,1.23,72.89,0,68Z"/><path class="cls-2" d="M107.28,110.64c-9.47,6.53-22.18,11.24-35.14,14.62v12.33C114.4,126.05,134.3,94.2,134.3,94.2c-15.82,29-42.55,42.68-62.16,49.11v12.33c16.63-5.1,39-18.59,54.33-38.38C138.17,102.15,141.4,80.5,141.36,68,140.13,72.89,134.45,93.4,107.28,110.64Z"/><path class="cls-1" d="M79.57,115.82c6.16-1.38,13.15-4.07,21.61-8.9,30.31-17.32,40-35.31,40-53.29S122.49,0,122.49,0s7.66,32.13,6.66,46-10.65,24.24-32,35.9A65.39,65.39,0,0,1,81,88.55c-2.21.54-4.91-.49-5.76-2.59a15.45,15.45,0,0,1-.94-4.35c-.88-9.53-3.57-43.39-3.57-43.39h0S68,72.08,67.11,81.61A15.45,15.45,0,0,1,66.17,86c-.85,2.1-3.55,3.13-5.76,2.59a65.55,65.55,0,0,1-16.23-6.61c-21.31-11.66-31-22-32-35.9S18.87,0,18.87,0,.22,35.64.22,53.63s9.66,36,40,53.29c8.45,4.83,15.44,7.52,21.6,8.9a35.31,35.31,0,0,0,5.58,1c1.15.11,2.22.22,3.31.23s2.16-.12,3.32-.23A35.38,35.38,0,0,0,79.57,115.82Z"/><path class="cls-2" d="M0,166.9v-4.19H1.61v4.19a1,1,0,0,0,2,0v-4.19H5.2v4.19a2.49,2.49,0,0,1-2.6,2.48A2.49,2.49,0,0,1,0,166.9Z"/><path class="cls-2" d="M6.58,163.66H8.82a2.83,2.83,0,0,1,0,5.64H6.58ZM8,168h.79c.74,0,1.12-.74,1.12-1.52s-.38-1.56-1.12-1.56H8Z"/><path class="cls-2" d="M12.45,167.24v-3.56h1.44v3.56a.81.81,0,0,0,.8.79.78.78,0,0,0,.79-.79v-3.56h1.45v3.56a2.15,2.15,0,0,1-2.24,2.14A2.15,2.15,0,0,1,12.45,167.24Z"/><path class="cls-2" d="M19.73,169.3H18.29v-5.64h2.34a1.89,1.89,0,1,1,0,3.78h-.9Zm0-4.38v1.28h.83c.43,0,.55-.32.55-.64s-.12-.64-.57-.64Z"/><path class="cls-2" d="M23.53,163.66H25v5.64H23.53Z"/><path class="cls-2" d="M34.47,167.87a3.31,3.31,0,0,1-2.8,1.51,3.38,3.38,0,1,1,2.81-5.24c.07,0-.27.19-.62.43l-.71.49a1.76,1.76,0,1,0,0,1.9Z"/><path class="cls-2" d="M38,163.59a2.9,2.9,0,1,1-2.88,2.91A2.88,2.88,0,0,1,38,163.59Zm0,4.34a1.44,1.44,0,1,0-1.42-1.43A1.43,1.43,0,0,0,38,167.93Z"/><path class="cls-2" d="M46.92,168.06a2.89,2.89,0,1,1,0-3.15l-1.22.84a1.46,1.46,0,0,0-1.21-.68,1.41,1.41,0,0,0-1.41,1.43,1.42,1.42,0,0,0,2.63.73Z"/><path class="cls-2" d="M50.94,165.85v-2.19h1.47v5.64H50.94v-2.15H49.35v2.15H47.91v-5.64h1.44v2.19Z"/><path class="cls-2" d="M53.82,163.66h1.45v5.64H53.82Z"/><path class="cls-2" d="M59.54,163.66H61v5.64H59.73l-1.62-2.89v2.89H56.67v-5.64H58l1.57,2.86Z"/><path class="cls-2" d="M66,167.34c0,.35.25.64.81.64s.82-.17.82-.59c0-.11,0-.32-.66-.55l-.78-.26c-1.47-.4-1.72-1.32-1.72-1.94a2.09,2.09,0,0,1,2.3-2A2,2,0,0,1,69,164.68h-1.6c0-.35-.2-.61-.68-.61s-.7.21-.7.53c0,.13,0,.36.61.53l.75.24c1.73.54,1.83,1.54,1.83,2,0,1.45-1.33,2-2.44,2-1.48,0-2.43-.79-2.43-2Z"/><path class="cls-2" d="M73.32,165.85v-2.19H74.8v5.64H73.32v-2.15H71.74v2.15H70.3v-5.64h1.44v2.19Z"/><path class="cls-2" d="M76.21,163.66h1.44v5.64H76.21Z"/><path class="cls-2" d="M80.49,169.3H79.05v-5.64h2.34a1.89,1.89,0,1,1,0,3.78h-.9Zm0-4.38v1.28h.84c.43,0,.55-.32.55-.64s-.12-.64-.57-.64Z"/><path class="cls-2" d="M85.58,169.3v-2.52l-2.2-3.12h1.73l1.19,2,1.23-2h1.69L87,166.8v2.5Z"/><path class="cls-2" d="M92.33,168H90.64l-.46,1.27H88.64l2.06-5.64h1.57l2.06,5.64H92.8ZM91,166.78h1L91.47,165Z"/><path class="cls-2" d="M96.51,169.3H95.06v-5.64H97.4a1.9,1.9,0,0,1,.64,3.71l1.37,1.93H97.75l-1.2-1.86h0Zm0-4.38v1.28h.84c.43,0,.55-.32.55-.64s-.13-.64-.56-.64Z"/><path class="cls-2" d="M100.51,163.66h2.24a2.83,2.83,0,0,1,0,5.64h-2.24ZM102,168h.79c.74,0,1.12-.74,1.12-1.52s-.38-1.56-1.12-1.56H102Z"/><path class="cls-2" d="M108.76,169.3v-6.59h1.61v5.19h2.37v1.4Z"/><path class="cls-2" d="M113.68,163.66h1.44v5.64h-1.44Z"/><path class="cls-2" d="M121.15,163.66h1.21l.69,5.64h-1.5l-.31-2.86-1,2.21H119.1l-1-2.21-.34,2.86h-1.49l.69-5.64h1.2l1.54,3.32Z"/><path class="cls-2" d="M124.16,163.66h1.45v5.64h-1.45Z"/><path class="cls-2" d="M127.89,164.92h-1.44v-1.26h4.31v1.26h-1.44v4.38h-1.43Z"/><path class="cls-2" d="M135.37,169.3h-3.76v-5.64h3.69v1.26h-2.25v1h2v1.24h-2V168h2.32Z"/><path class="cls-2" d="M136.55,163.66h2.25a2.83,2.83,0,0,1,0,5.64h-2.25ZM138,168h.79c.74,0,1.12-.74,1.12-1.52s-.38-1.56-1.12-1.56H138Z"/></g></g></svg>