<?xml version="1.0" encoding="utf-8"?>
<!-- Generator: Adobe Illustrator 19.0.0, SVG Export Plug-In . SVG Version: 6.00 Build 0)  -->
<svg version="1.1" id="Layer_1" xmlns="http://www.w3.org/2000/svg" xmlns:xlink="http://www.w3.org/1999/xlink" x="0px" y="0px"
	 viewBox="-118 209 375 375" style="enable-background:new -118 209 375 375;" xml:space="preserve">
<style type="text/css">
	.st0{clip-path:url(#SVGID_4_);}
	.st1{clip-path:url(#SVGID_6_);}
	.st2{clip-path:url(#SVGID_8_);}
	.st3{clip-path:url(#SVGID_10_);}
	.st4{clip-path:url(#SVGID_12_);}
</style>
<g id="surface1">
	<g>
		<defs>
			<rect id="SVGID_1_" x="93" y="421" width="143.8" height="143.6"/>
		</defs>
		<clipPath id="SVGID_2_">
			<use xlink:href="#SVGID_1_"  style="overflow:visible;"/>
		</clipPath>
	</g>
	<g>
		<defs>
			<rect id="SVGID_3_" x="-98.4" y="342" width="288.4" height="80"/>
		</defs>
		<clipPath id="SVGID_4_">
			<use xlink:href="#SVGID_3_"  style="overflow:visible;"/>
		</clipPath>
		<g class="st0">
			<path d="M45.3,421.1c79.4,0,143.8-21.4,143.8-47.9v-24c0-2.3-0.7-4.6-1.7-6.9c-31.2,21-86.8,30.9-142.1,30.9
				c-55.3,0-110.8-9.8-142.1-30.9c-1,2.3-1.7,4.6-1.7,6.9v24C-98.4,399.6-34.1,421.1,45.3,421.1z"/>
		</g>
	</g>
	<g>
		<defs>
			<rect id="SVGID_5_" x="-98.4" y="229.4" width="288.4" height="120.6"/>
		</defs>
		<clipPath id="SVGID_6_">
			<use xlink:href="#SVGID_5_"  style="overflow:visible;"/>
		</clipPath>
		<g class="st1">
			<path d="M45.3,349.2c79.4,0,143.8-21.4,143.8-47.9v-24c0-26.5-64.4-47.9-143.8-47.9s-143.8,21.4-143.8,47.9v24
				C-98.4,327.7-34.1,349.2,45.3,349.2z"/>
		</g>
	</g>
	<g>
		<defs>
			<rect id="SVGID_7_" x="-98.4" y="486" width="168.4" height="78.6"/>
		</defs>
		<clipPath id="SVGID_8_">
			<use xlink:href="#SVGID_7_"  style="overflow:visible;"/>
		</clipPath>
		<g class="st2">
			<path d="M-96.8,486c-1,2.3-1.7,4.6-1.7,6.9v24c0,26.5,64.4,47.9,143.8,47.9c8.2,0,16.2-0.3,24-0.7v-47.9c-8,0.4-15.9,0.7-24,0.7
				C-10,516.9-65.5,507.1-96.8,486z"/>
		</g>
	</g>
	<g>
		<defs>
			<rect id="SVGID_9_" x="-98.4" y="414" width="168.4" height="79"/>
		</defs>
		<clipPath id="SVGID_10_">
			<use xlink:href="#SVGID_9_"  style="overflow:visible;"/>
		</clipPath>
		<g class="st3">
			<path d="M-96.8,414.1c-1,2.3-1.7,4.6-1.7,6.9v24c0,26.5,64.4,47.9,143.8,47.9c8.2,0,16.2-0.3,24-0.7v-47.9
				c-8,0.4-15.9,0.7-24,0.7C-10,445-65.5,435.2-96.8,414.1z"/>
		</g>
	</g>
</g>
<g>
	<g id="surface1_2_">
		<g>
			<defs>
				<rect id="SVGID_11_" x="81.7" y="420.6" width="144.8" height="144.8"/>
			</defs>
			<clipPath id="SVGID_12_">
				<use xlink:href="#SVGID_11_"  style="overflow:visible;"/>
			</clipPath>
			<g class="st4">
				<path d="M86,501.9l10,0.9c0.3,0,0.6,0.3,0.6,0.6c0.3,1.7,0.7,3.3,1.1,4.8c0.4,1.5,0.9,3,1.5,4.7c0.1,0.3,0,0.6-0.2,0.8l-8.3,5.8
					c-1.8,1.2-2.4,3.7-1.5,5.7c1.4,2.8,3,5.6,4.7,8.1c0.8,1.2,2.2,2,3.8,2c0.7,0,1.3-0.1,1.9-0.4l9.2-4.3c0.3-0.1,0.6,0,0.8,0.2
					c2.1,2.5,4.5,4.8,6.9,6.9c0.3,0.2,0.3,0.5,0.2,0.8l-4.3,9.1c-0.9,2-0.3,4.4,1.5,5.6c2.7,1.8,5.4,3.4,8.1,4.7
					c1.9,1,4.4,0.3,5.7-1.5l5.8-8.3c0.3-0.4,0.6-0.3,0.8-0.2c3,1.1,6.2,2,9.5,2.5c0.3,0.1,0.6,0.3,0.6,0.6l0.9,10.1
					c0.2,2.2,2,4,4.2,4.1c1.5,0.1,3.1,0.1,4.6,0.1c1.6,0,3.2-0.1,4.8-0.2c2.1-0.1,4-1.9,4.2-4.1l0.9-10c0-0.3,0.3-0.6,0.6-0.6
					c1.6-0.3,3.3-0.6,4.8-1.1c1.5-0.4,3-0.9,4.7-1.5c0.3-0.1,0.6,0,0.8,0.2l5.8,8.3c1.2,1.7,3.8,2.4,5.7,1.5c2.8-1.4,5.6-3,8.1-4.7
					c1.8-1.2,2.5-3.7,1.5-5.7l-4.3-9.2c-0.1-0.3,0-0.6,0.2-0.8c2.5-2.1,4.9-4.5,6.9-6.9c0.2-0.3,0.5-0.3,0.8-0.2l9.1,4.3
					c0.6,0.3,1.3,0.4,1.9,0.4c1.5,0,2.9-0.7,3.7-2c1.7-2.6,3.3-5.3,4.7-8.1c1-2,0.3-4.4-1.5-5.7l-8.3-5.8c-0.3-0.2-0.3-0.5-0.2-0.8
					c1.1-3,2-6.2,2.5-9.5c0.1-0.3,0.3-0.6,0.6-0.6l10.1-0.9c2.2-0.2,4-2,4.1-4.2c0.2-3.1,0.2-6.3,0-9.4c-0.1-2.1-2-4-4.1-4.2
					l-10-0.9c-0.3,0-0.6-0.3-0.6-0.6c-0.3-1.7-0.7-3.3-1.1-4.8c-0.4-1.5-0.9-3-1.5-4.7c-0.1-0.3,0-0.6,0.2-0.8l8.3-5.8
					c1.8-1.2,2.4-3.7,1.5-5.7c-1.4-2.8-3-5.6-4.7-8.1c-0.8-1.2-2.2-2-3.8-2c-0.7,0-1.3,0.1-1.9,0.4l-9.1,4.3
					c-0.3,0.1-0.6,0.1-0.8-0.2c-2.1-2.5-4.5-4.8-6.9-6.9c-0.3-0.2-0.3-0.5-0.2-0.8l4.3-9.1c0.9-2,0.3-4.4-1.5-5.6
					c-2.6-1.7-5.3-3.3-8.2-4.7c-1.9-1-4.4-0.3-5.7,1.5l-5.8,8.3c-0.3,0.4-0.6,0.3-0.8,0.2c-3-1.1-6.2-2-9.5-2.5
					c-0.3-0.1-0.6-0.3-0.6-0.6l-0.9-10.1c-0.2-2.2-2-4-4.2-4.1c-3.1-0.2-6.3-0.2-9.4,0c-2.2,0.1-4,1.9-4.2,4.1l-0.9,10
					c0,0.3-0.3,0.6-0.6,0.6c-1.6,0.3-3.3,0.6-4.8,1.1c-1.5,0.4-3,0.9-4.7,1.5c-0.3,0.1-0.6,0-0.8-0.2l-5.8-8.3
					c-1.2-1.7-3.8-2.4-5.7-1.5c-2.8,1.4-5.6,3-8.1,4.7c-1.8,1.2-2.5,3.7-1.5,5.7l4.3,9.2c0.1,0.3,0,0.6-0.2,0.8
					c-2.5,2.1-4.9,4.5-6.9,6.9c-0.2,0.2-0.5,0.3-0.8,0.2l-9.1-4.3c-2-0.9-4.5-0.2-5.6,1.5c-1.8,2.7-3.4,5.4-4.7,8.1
					c-1,2-0.3,4.4,1.5,5.7l8.3,5.8c0.3,0.2,0.3,0.5,0.2,0.8c-1.1,3-2,6.2-2.5,9.5c-0.1,0.3-0.3,0.6-0.6,0.6L86,484.2
					c-2.2,0.2-4,2-4.1,4.2c-0.2,3.1-0.2,6.3,0,9.4C82,499.9,83.9,501.8,86,501.9z M121.1,474c5.1-8.8,13.3-15.1,23.1-17.7
					c3.2-0.9,6.6-1.3,9.9-1.3c17.2,0,32.3,11.6,36.8,28.3c2.6,9.8,1.3,20.1-3.8,28.9c-5.1,8.8-13.3,15.1-23.1,17.7
					c-3.2,0.9-6.6,1.3-9.9,1.3c0,0,0,0,0,0c-17.2,0-32.3-11.6-36.8-28.3C114.6,493.1,116,482.8,121.1,474z"/>
			</g>
		</g>
	</g>
</g>
</svg>
