<?xml version="1.0" encoding="UTF-8"?>
<svg xmlns="http://www.w3.org/2000/svg" xmlns:xlink="http://www.w3.org/1999/xlink" width="375pt" height="374.999991pt" viewBox="0 0 375 374.999991" version="1.2">
<defs>
<clipPath id="clip1">
  <path d="M 49 15.050781 L 324 15.050781 L 324 362.300781 L 49 362.300781 Z M 49 15.050781 "/>
</clipPath>
</defs>
<g id="surface1">
<g clip-path="url(#clip1)" clip-rule="nonzero">
<path style=" stroke:none;fill-rule:nonzero;fill:rgb(0%,0%,0%);fill-opacity:1;" d="M 128.691406 261.542969 C 128.691406 258.242188 126.011719 255.5625 122.703125 255.5625 L 113.34375 255.5625 C 110.035156 255.5625 107.355469 258.242188 107.355469 261.542969 C 107.355469 264.851562 110.035156 267.527344 113.34375 267.527344 L 122.703125 267.527344 C 126.011719 267.527344 128.691406 264.851562 128.691406 261.542969 Z M 299.050781 362.339844 L 73.90625 362.339844 C 59.414062 362.339844 48.183594 349.671875 49.9375 335.296875 L 59.125 260.089844 C 59.132812 260.121094 59.140625 260.078125 59.144531 259.9375 L 59.175781 259.679688 C 59.496094 257.058594 59.949219 254.480469 60.496094 251.941406 C 64.21875 238.507812 76.238281 214.703125 103.53125 206.8125 C 113.976562 203.789062 120.667969 199.726562 124.914062 196.050781 C 129 192.515625 135.308594 193.78125 137.640625 198.648438 C 145.253906 214.554688 159.046875 243.390625 170.042969 266.371094 L 171.429688 244.617188 C 171.675781 240.804688 173.066406 237.15625 175.425781 234.148438 L 181.015625 227.03125 C 180.640625 226.757812 180.277344 226.460938 179.9375 226.125 L 171.554688 217.746094 C 167.933594 214.128906 167.933594 208.261719 171.554688 204.644531 L 179.9375 196.273438 C 183.558594 192.65625 189.429688 192.65625 193.050781 196.273438 L 201.4375 204.644531 C 205.058594 208.261719 205.058594 214.128906 201.4375 217.746094 L 193.050781 226.125 C 192.707031 226.464844 192.335938 226.769531 191.957031 227.046875 L 197.53125 234.148438 C 199.886719 237.15625 201.285156 240.804688 201.527344 244.617188 L 202.914062 266.386719 C 213.917969 243.402344 227.730469 214.550781 235.34375 198.652344 C 237.671875 193.796875 243.976562 192.503906 248.046875 196.03125 C 252.289062 199.714844 258.992188 203.785156 269.457031 206.8125 C 296.300781 214.574219 308.367188 237.726562 312.300781 251.265625 C 312.925781 254.019531 313.429688 256.824219 313.78125 259.679688 L 323.015625 335.296875 C 324.773438 349.671875 313.542969 362.339844 299.050781 362.339844 Z M 127.449219 86.203125 C 127.617188 86.1875 127.78125 86.207031 127.949219 86.214844 C 125.054688 80.78125 117.792969 64.066406 126.585938 46.09375 C 137.011719 24.785156 159.660156 26.976562 159.660156 26.976562 L 159.648438 26.996094 C 159.65625 26.992188 159.664062 26.988281 159.671875 26.984375 L 159.660156 26.976562 C 159.660156 26.976562 168.597656 15.082031 198.382812 15.394531 C 228.167969 15.710938 251.054688 43.585938 251.996094 63.007812 C 252.585938 75.195312 249.347656 82.699219 246.851562 86.59375 C 250.5 88.363281 252.730469 96.042969 251.957031 105.015625 C 251.09375 115.027344 246.816406 122.835938 242.410156 122.457031 C 241.503906 122.378906 240.664062 121.941406 239.910156 121.242188 L 239.152344 126.664062 C 236.742188 157.320312 215.269531 180.890625 186.496094 180.890625 C 157.714844 180.890625 136.25 157.320312 133.835938 126.664062 L 133.078125 121.242188 C 132.324219 121.941406 131.484375 122.378906 130.582031 122.457031 C 126.171875 122.835938 121.894531 115.027344 121.03125 105.015625 C 120.167969 95.003906 123.042969 86.582031 127.449219 86.203125 "/>
</g>
</g>
</svg>
