<?xml version="1.0" encoding="UTF-8"?>
<svg xmlns="http://www.w3.org/2000/svg" xmlns:xlink="http://www.w3.org/1999/xlink" width="375pt" height="374.999991pt" viewBox="0 0 375 374.999991" version="1.2">
<defs>
<clipPath id="clip1">
  <path d="M 37.5 141 L 337.5 141 L 337.5 327 L 37.5 327 Z M 37.5 141 "/>
</clipPath>
</defs>
<g id="surface1">
<path style=" stroke:none;fill-rule:evenodd;fill:rgb(0%,0%,0%);fill-opacity:1;" d="M 154.320312 126.0625 C 155.242188 127.660156 156.945312 128.640625 158.785156 128.640625 L 210.105469 128.640625 C 211.945312 128.640625 213.648438 127.660156 214.570312 126.0625 C 215.492188 124.46875 215.492188 122.503906 214.570312 120.90625 L 178.320312 58.125 C 174.050781 50.722656 164.585938 48.191406 157.1875 52.460938 L 136.5625 64.367188 C 129.164062 68.640625 126.628906 78.101562 130.902344 85.503906 C 130.902344 85.503906 154.320312 126.0625 154.320312 126.0625 Z M 154.320312 126.0625 "/>
<path style=" stroke:none;fill-rule:evenodd;fill:rgb(0%,0%,0%);fill-opacity:1;" d="M 183.035156 81.757812 C 182.109375 83.351562 182.109375 85.316406 183.035156 86.914062 L 205.636719 126.0625 C 206.5625 127.660156 208.261719 128.640625 210.105469 128.640625 L 216.214844 128.640625 C 218.054688 128.640625 219.757812 127.660156 220.679688 126.0625 L 244.097656 85.503906 C 248.371094 78.101562 245.835938 68.640625 238.4375 64.367188 L 217.8125 52.460938 C 210.414062 48.191406 200.949219 50.722656 196.679688 58.125 C 196.679688 58.125 183.035156 81.757812 183.035156 81.757812 Z M 193.457031 84.335938 L 205.613281 63.28125 C 207.035156 60.816406 210.191406 59.96875 212.65625 61.394531 C 212.65625 61.394531 233.28125 73.300781 233.28125 73.300781 C 235.746094 74.722656 236.589844 77.878906 235.167969 80.34375 C 235.167969 80.34375 213.234375 118.328125 213.234375 118.328125 C 213.234375 118.328125 213.078125 118.328125 213.078125 118.328125 Z M 193.457031 84.335938 "/>
<path style=" stroke:none;fill-rule:evenodd;fill:rgb(0%,0%,0%);fill-opacity:1;" d="M 244.226562 138.957031 C 244.226562 133.484375 242.058594 128.238281 238.183594 124.371094 C 234.316406 120.503906 229.070312 118.328125 223.601562 118.328125 L 149.734375 118.328125 C 144.261719 118.328125 139.019531 120.503906 135.148438 124.371094 C 131.28125 128.238281 129.105469 133.484375 129.105469 138.957031 C 129.105469 143.214844 129.105469 146.691406 129.105469 146.691406 C 129.105469 149.542969 131.417969 151.847656 134.261719 151.847656 L 239.070312 151.847656 C 241.917969 151.847656 244.226562 149.542969 244.226562 146.691406 Z M 233.914062 138.957031 L 233.914062 141.535156 C 233.914062 141.535156 139.421875 141.535156 139.421875 141.535156 L 139.421875 138.957031 C 139.421875 136.222656 140.507812 133.597656 142.441406 131.664062 C 144.375 129.730469 147 128.640625 149.734375 128.640625 C 149.734375 128.640625 223.601562 128.640625 223.601562 128.640625 C 226.332031 128.640625 228.957031 129.730469 230.890625 131.664062 C 232.824219 133.597656 233.914062 136.222656 233.914062 138.957031 Z M 233.914062 138.957031 "/>
<g clip-path="url(#clip1)" clip-rule="nonzero">
<path style=" stroke:none;fill-rule:evenodd;fill:rgb(0%,0%,0%);fill-opacity:1;" d="M 337.0625 167.320312 C 337.0625 160.480469 334.34375 153.921875 329.507812 149.089844 C 324.667969 144.253906 318.113281 141.535156 311.277344 141.535156 C 258.109375 141.535156 116.890625 141.535156 63.722656 141.535156 C 56.886719 141.535156 50.332031 144.253906 45.492188 149.089844 C 40.65625 153.921875 37.9375 160.480469 37.9375 167.320312 C 37.9375 201.0625 37.9375 267.667969 37.9375 301.40625 C 37.9375 308.242188 40.65625 314.804688 45.492188 319.640625 C 50.332031 324.472656 56.886719 327.191406 63.722656 327.191406 C 116.890625 327.191406 258.109375 327.191406 311.277344 327.191406 C 318.113281 327.191406 324.667969 324.472656 329.507812 319.640625 C 334.34375 314.804688 337.0625 308.242188 337.0625 301.40625 Z M 126.042969 178.476562 C 95.191406 178.476562 70.148438 203.519531 70.148438 234.363281 C 70.148438 265.210938 95.191406 290.253906 126.042969 290.253906 C 156.886719 290.253906 181.929688 265.210938 181.929688 234.363281 C 181.929688 203.519531 156.886719 178.476562 126.042969 178.476562 Z M 299.691406 263.253906 L 215.6875 263.253906 C 212.84375 263.253906 210.53125 265.5625 210.53125 268.410156 C 210.53125 271.257812 212.84375 273.566406 215.6875 273.566406 L 299.691406 273.566406 C 302.539062 273.566406 304.851562 271.257812 304.851562 268.410156 C 304.851562 265.5625 302.539062 263.253906 299.691406 263.253906 Z M 88.984375 260.886719 C 83.625 253.414062 80.464844 244.253906 80.464844 234.363281 C 80.464844 209.210938 100.886719 188.789062 126.042969 188.789062 C 151.195312 188.789062 171.617188 209.210938 171.617188 234.363281 C 171.617188 244.253906 168.460938 253.414062 163.097656 260.886719 C 162.277344 259.832031 161.382812 258.828125 160.433594 257.878906 C 154.277344 251.722656 145.929688 248.261719 137.21875 248.261719 L 114.863281 248.261719 C 106.15625 248.261719 97.808594 251.722656 91.648438 257.878906 C 90.695312 258.828125 89.808594 259.832031 88.984375 260.886719 Z M 126.042969 201.335938 C 114.910156 201.335938 105.875 210.371094 105.875 221.507812 C 105.875 232.640625 114.910156 241.675781 126.042969 241.675781 C 137.171875 241.675781 146.210938 232.640625 146.210938 221.507812 C 146.210938 210.371094 137.171875 201.335938 126.042969 201.335938 Z M 299.691406 229.207031 L 215.6875 229.207031 C 212.84375 229.207031 210.53125 231.515625 210.53125 234.363281 C 210.53125 237.210938 212.84375 239.519531 215.6875 239.519531 L 299.691406 239.519531 C 302.539062 239.519531 304.851562 237.210938 304.851562 234.363281 C 304.851562 231.515625 302.539062 229.207031 299.691406 229.207031 Z M 299.691406 195.164062 L 215.6875 195.164062 C 212.84375 195.164062 210.53125 197.472656 210.53125 200.320312 C 210.53125 203.167969 212.84375 205.476562 215.6875 205.476562 L 299.691406 205.476562 C 302.539062 205.476562 304.851562 203.167969 304.851562 200.320312 C 304.851562 197.472656 302.539062 195.164062 299.691406 195.164062 Z M 299.691406 195.164062 "/>
</g>
</g>
</svg>
