<?xml version="1.0" encoding="UTF-8"?>
<svg xmlns="http://www.w3.org/2000/svg" xmlns:xlink="http://www.w3.org/1999/xlink" width="375pt" height="374.999991pt" viewBox="0 0 375 374.999991" version="1.2">
<defs>
<clipPath id="clip1">
  <path d="M 12.59375 13.347656 L 361.039062 13.347656 L 361.039062 361.792969 L 12.59375 361.792969 Z M 12.59375 13.347656 "/>
</clipPath>
</defs>
<g id="surface1">
<g clip-path="url(#clip1)" clip-rule="nonzero">
<path style=" stroke:none;fill-rule:evenodd;fill:rgb(0%,0%,0%);fill-opacity:1;" d="M 186.816406 13.347656 C 282.640625 13.347656 361.039062 91.746094 361.039062 187.570312 C 361.039062 283.390625 282.640625 361.792969 186.816406 361.792969 C 90.992188 361.792969 12.59375 283.390625 12.59375 187.570312 C 12.59375 91.746094 90.992188 13.347656 186.816406 13.347656 Z M 186.816406 32.644531 C 101.609375 32.644531 31.890625 102.359375 31.890625 187.570312 C 31.890625 272.777344 101.609375 342.492188 186.816406 342.492188 C 272.027344 342.492188 341.742188 272.777344 341.742188 187.570312 C 341.742188 102.359375 272.027344 32.644531 186.816406 32.644531 "/>
</g>
<path style=" stroke:none;fill-rule:evenodd;fill:rgb(0%,0%,0%);fill-opacity:1;" d="M 151.617188 214.28125 L 251.972656 113.921875 C 260.613281 105.28125 274.625 105.28125 283.265625 113.921875 C 291.902344 122.558594 291.902344 136.574219 283.265625 145.210938 L 167.375 261.097656 C 167.335938 261.140625 167.296875 261.179688 167.257812 261.214844 C 158.621094 269.855469 144.605469 269.855469 135.96875 261.214844 L 90.371094 215.617188 C 81.730469 206.976562 81.730469 192.964844 90.371094 184.324219 C 99.007812 175.6875 113.023438 175.6875 121.660156 184.324219 L 151.617188 214.28125 "/>
</g>
</svg>
