<?xml version="1.0" encoding="UTF-8"?>
<svg xmlns="http://www.w3.org/2000/svg" xmlns:xlink="http://www.w3.org/1999/xlink" width="375pt" height="374.999991pt" viewBox="0 0 375 374.999991" version="1.2">
<defs>
<clipPath id="clip1">
  <path d="M 278 215 L 356.339844 215 L 356.339844 355.78125 L 278 355.78125 Z M 278 215 "/>
</clipPath>
<clipPath id="clip2">
  <path d="M 19.589844 215 L 99 215 L 99 355.78125 L 19.589844 355.78125 Z M 19.589844 215 "/>
</clipPath>
<clipPath id="clip3">
  <path d="M 64 19.03125 L 172 19.03125 L 172 160 L 64 160 Z M 64 19.03125 "/>
</clipPath>
<clipPath id="clip4">
  <path d="M 205 19.03125 L 312 19.03125 L 312 160 L 205 160 Z M 205 19.03125 "/>
</clipPath>
</defs>
<g id="surface1">
<path style=" stroke:none;fill-rule:nonzero;fill:rgb(0%,0%,0%);fill-opacity:1;" d="M 339.859375 193.210938 C 339.859375 193.949219 339.824219 194.683594 339.75 195.414062 C 339.679688 196.148438 339.570312 196.875 339.425781 197.597656 C 339.285156 198.316406 339.105469 199.03125 338.890625 199.734375 C 338.675781 200.441406 338.429688 201.132812 338.148438 201.8125 C 337.867188 202.492188 337.550781 203.15625 337.203125 203.804688 C 336.859375 204.457031 336.480469 205.085938 336.070312 205.699219 C 335.660156 206.308594 335.222656 206.898438 334.757812 207.46875 C 334.289062 208.039062 333.796875 208.582031 333.277344 209.105469 C 332.753906 209.625 332.210938 210.117188 331.640625 210.585938 C 331.074219 211.050781 330.480469 211.488281 329.871094 211.898438 C 329.257812 212.308594 328.628906 212.683594 327.976562 213.03125 C 327.328125 213.378906 326.664062 213.695312 325.984375 213.976562 C 325.304688 214.257812 324.613281 214.503906 323.90625 214.71875 C 323.203125 214.933594 322.492188 215.109375 321.769531 215.253906 C 321.046875 215.398438 320.320312 215.507812 319.585938 215.578125 C 318.855469 215.648438 318.121094 215.6875 317.382812 215.6875 C 316.648438 215.6875 315.914062 215.648438 315.179688 215.578125 C 314.449219 215.507812 313.722656 215.398438 313 215.253906 C 312.277344 215.109375 311.5625 214.933594 310.859375 214.71875 C 310.15625 214.503906 309.460938 214.257812 308.78125 213.976562 C 308.101562 213.695312 307.4375 213.378906 306.789062 213.03125 C 306.140625 212.683594 305.507812 212.308594 304.898438 211.898438 C 304.285156 211.488281 303.695312 211.050781 303.125 210.585938 C 302.558594 210.117188 302.011719 209.625 301.492188 209.105469 C 300.972656 208.582031 300.476562 208.039062 300.011719 207.46875 C 299.542969 206.898438 299.105469 206.308594 298.695312 205.699219 C 298.289062 205.085938 297.910156 204.457031 297.5625 203.804688 C 297.214844 203.15625 296.902344 202.492188 296.621094 201.8125 C 296.335938 201.132812 296.089844 200.441406 295.875 199.734375 C 295.664062 199.03125 295.484375 198.316406 295.339844 197.597656 C 295.195312 196.875 295.089844 196.148438 295.015625 195.414062 C 294.945312 194.683594 294.910156 193.949219 294.910156 193.210938 C 294.910156 192.476562 294.945312 191.742188 295.015625 191.007812 C 295.089844 190.277344 295.195312 189.546875 295.339844 188.828125 C 295.484375 188.105469 295.664062 187.390625 295.875 186.6875 C 296.089844 185.984375 296.335938 185.289062 296.621094 184.609375 C 296.902344 183.929688 297.214844 183.265625 297.5625 182.617188 C 297.910156 181.96875 298.289062 181.335938 298.695312 180.726562 C 299.105469 180.113281 299.542969 179.523438 300.011719 178.953125 C 300.476562 178.382812 300.972656 177.839844 301.492188 177.320312 C 302.011719 176.796875 302.558594 176.304688 303.125 175.835938 C 303.695312 175.371094 304.285156 174.933594 304.898438 174.523438 C 305.507812 174.113281 306.140625 173.738281 306.789062 173.390625 C 307.4375 173.042969 308.101562 172.730469 308.78125 172.445312 C 309.460938 172.164062 310.15625 171.917969 310.859375 171.703125 C 311.5625 171.492188 312.277344 171.3125 313 171.167969 C 313.722656 171.023438 314.449219 170.917969 315.179688 170.84375 C 315.914062 170.773438 316.648438 170.734375 317.382812 170.734375 C 318.121094 170.734375 318.855469 170.773438 319.585938 170.84375 C 320.320312 170.917969 321.046875 171.023438 321.769531 171.167969 C 322.492188 171.3125 323.203125 171.492188 323.90625 171.703125 C 324.613281 171.917969 325.304688 172.164062 325.984375 172.445312 C 326.664062 172.730469 327.328125 173.042969 327.976562 173.390625 C 328.628906 173.738281 329.257812 174.113281 329.871094 174.523438 C 330.480469 174.933594 331.074219 175.371094 331.640625 175.835938 C 332.210938 176.304688 332.753906 176.796875 333.277344 177.320312 C 333.796875 177.839844 334.289062 178.382812 334.757812 178.953125 C 335.222656 179.523438 335.660156 180.113281 336.070312 180.726562 C 336.480469 181.335938 336.859375 181.96875 337.203125 182.617188 C 337.550781 183.265625 337.867188 183.929688 338.148438 184.609375 C 338.429688 185.289062 338.675781 185.984375 338.890625 186.6875 C 339.105469 187.390625 339.285156 188.105469 339.425781 188.828125 C 339.570312 189.546875 339.679688 190.277344 339.75 191.007812 C 339.824219 191.742188 339.859375 192.476562 339.859375 193.210938 Z M 339.859375 193.210938 "/>
<g clip-path="url(#clip1)" clip-rule="nonzero">
<path style=" stroke:none;fill-rule:nonzero;fill:rgb(0%,0%,0%);fill-opacity:1;" d="M 334.238281 215.6875 L 300.527344 215.6875 C 288.117188 215.6875 278.050781 225.75 278.050781 238.160156 L 278.050781 277.492188 L 294.910156 288.730469 L 294.910156 356.15625 L 339.859375 356.15625 L 339.859375 288.730469 L 356.714844 277.492188 L 356.714844 238.160156 C 356.714844 225.75 346.652344 215.6875 334.238281 215.6875 Z M 334.238281 215.6875 "/>
</g>
<path style=" stroke:none;fill-rule:nonzero;fill:rgb(0%,0%,0%);fill-opacity:1;" d="M 81.394531 193.210938 C 81.394531 193.949219 81.359375 194.683594 81.289062 195.414062 C 81.214844 196.148438 81.109375 196.875 80.964844 197.597656 C 80.820312 198.316406 80.640625 199.03125 80.429688 199.734375 C 80.214844 200.441406 79.964844 201.132812 79.683594 201.8125 C 79.402344 202.492188 79.089844 203.15625 78.742188 203.804688 C 78.394531 204.457031 78.015625 205.085938 77.609375 205.699219 C 77.199219 206.308594 76.761719 206.898438 76.292969 207.46875 C 75.828125 208.039062 75.332031 208.582031 74.8125 209.105469 C 74.292969 209.625 73.746094 210.117188 73.179688 210.585938 C 72.609375 211.050781 72.019531 211.488281 71.40625 211.898438 C 70.796875 212.308594 70.164062 212.683594 69.515625 213.03125 C 68.867188 213.378906 68.203125 213.695312 67.523438 213.976562 C 66.839844 214.257812 66.148438 214.503906 65.445312 214.71875 C 64.742188 214.933594 64.027344 215.109375 63.304688 215.253906 C 62.582031 215.398438 61.855469 215.507812 61.125 215.578125 C 60.390625 215.648438 59.65625 215.6875 58.921875 215.6875 C 58.183594 215.6875 57.449219 215.648438 56.71875 215.578125 C 55.984375 215.507812 55.257812 215.398438 54.535156 215.253906 C 53.8125 215.109375 53.101562 214.933594 52.398438 214.71875 C 51.691406 214.503906 51 214.257812 50.320312 213.976562 C 49.640625 213.695312 48.976562 213.378906 48.328125 213.03125 C 47.675781 212.683594 47.046875 212.308594 46.433594 211.898438 C 45.824219 211.488281 45.230469 211.050781 44.664062 210.585938 C 44.09375 210.117188 43.550781 209.625 43.027344 209.105469 C 42.507812 208.582031 42.015625 208.039062 41.546875 207.46875 C 41.082031 206.898438 40.640625 206.308594 40.234375 205.699219 C 39.824219 205.085938 39.445312 204.457031 39.101562 203.804688 C 38.753906 203.15625 38.4375 202.492188 38.15625 201.8125 C 37.875 201.132812 37.628906 200.441406 37.414062 199.734375 C 37.199219 199.03125 37.019531 198.316406 36.878906 197.597656 C 36.734375 196.875 36.625 196.148438 36.554688 195.414062 C 36.480469 194.683594 36.445312 193.949219 36.445312 193.210938 C 36.445312 192.476562 36.480469 191.742188 36.554688 191.007812 C 36.625 190.277344 36.734375 189.546875 36.878906 188.828125 C 37.019531 188.105469 37.199219 187.390625 37.414062 186.6875 C 37.628906 185.984375 37.875 185.289062 38.15625 184.609375 C 38.4375 183.929688 38.753906 183.265625 39.101562 182.617188 C 39.445312 181.96875 39.824219 181.335938 40.234375 180.726562 C 40.640625 180.113281 41.082031 179.523438 41.546875 178.953125 C 42.015625 178.382812 42.507812 177.839844 43.027344 177.320312 C 43.550781 176.796875 44.09375 176.304688 44.664062 175.835938 C 45.230469 175.371094 45.824219 174.933594 46.433594 174.523438 C 47.046875 174.113281 47.675781 173.738281 48.328125 173.390625 C 48.976562 173.042969 49.640625 172.730469 50.320312 172.445312 C 51 172.164062 51.691406 171.917969 52.398438 171.703125 C 53.101562 171.492188 53.8125 171.3125 54.535156 171.167969 C 55.257812 171.023438 55.984375 170.917969 56.71875 170.84375 C 57.449219 170.773438 58.183594 170.734375 58.921875 170.734375 C 59.65625 170.734375 60.390625 170.773438 61.125 170.84375 C 61.855469 170.917969 62.582031 171.023438 63.304688 171.167969 C 64.027344 171.3125 64.742188 171.492188 65.445312 171.703125 C 66.148438 171.917969 66.839844 172.164062 67.523438 172.445312 C 68.203125 172.730469 68.867188 173.042969 69.515625 173.390625 C 70.164062 173.738281 70.796875 174.113281 71.40625 174.523438 C 72.019531 174.933594 72.609375 175.371094 73.179688 175.835938 C 73.746094 176.304688 74.292969 176.796875 74.8125 177.320312 C 75.332031 177.839844 75.828125 178.382812 76.292969 178.953125 C 76.761719 179.523438 77.199219 180.113281 77.609375 180.726562 C 78.015625 181.335938 78.394531 181.96875 78.742188 182.617188 C 79.089844 183.265625 79.402344 183.929688 79.683594 184.609375 C 79.964844 185.289062 80.214844 185.984375 80.429688 186.6875 C 80.640625 187.390625 80.820312 188.105469 80.964844 188.828125 C 81.109375 189.546875 81.214844 190.277344 81.289062 191.007812 C 81.359375 191.742188 81.394531 192.476562 81.394531 193.210938 Z M 81.394531 193.210938 "/>
<g clip-path="url(#clip2)" clip-rule="nonzero">
<path style=" stroke:none;fill-rule:nonzero;fill:rgb(0%,0%,0%);fill-opacity:1;" d="M 36.445312 356.15625 L 81.394531 356.15625 L 81.394531 288.730469 L 98.253906 277.492188 L 98.253906 238.160156 C 98.253906 225.75 88.1875 215.6875 75.777344 215.6875 L 42.066406 215.6875 C 29.652344 215.6875 19.589844 225.75 19.589844 238.160156 L 19.589844 277.492188 L 36.445312 288.730469 Z M 36.445312 356.15625 "/>
</g>
<g clip-path="url(#clip3)" clip-rule="nonzero">
<path style=" stroke:none;fill-rule:nonzero;fill:rgb(0%,0%,0%);fill-opacity:1;" d="M 137.582031 108.929688 L 160.058594 108.929688 C 166.265625 108.929688 171.296875 103.902344 171.296875 97.691406 L 171.296875 30.265625 C 171.296875 24.058594 166.265625 19.03125 160.058594 19.03125 L 75.777344 19.03125 C 69.570312 19.03125 64.539062 24.058594 64.539062 30.265625 L 64.539062 97.691406 C 64.539062 103.902344 69.570312 108.929688 75.777344 108.929688 L 103.871094 108.929688 L 87.015625 159.5 Z M 88.976562 71.453125 L 96.292969 62.921875 L 114.210938 78.28125 L 144.324219 38.132812 L 153.316406 44.875 L 119.601562 89.828125 C 118.671875 91.074219 117.265625 91.871094 115.722656 92.046875 C 115.519531 92.0625 115.3125 92.074219 115.109375 92.074219 C 113.777344 92.074219 112.472656 91.597656 111.449219 90.71875 Z M 88.976562 71.453125 "/>
</g>
<g clip-path="url(#clip4)" clip-rule="nonzero">
<path style=" stroke:none;fill-rule:nonzero;fill:rgb(0%,0%,0%);fill-opacity:1;" d="M 311.765625 97.691406 L 311.765625 30.265625 C 311.765625 24.058594 306.734375 19.03125 300.527344 19.03125 L 216.246094 19.03125 C 210.039062 19.03125 205.007812 24.058594 205.007812 30.265625 L 205.007812 97.691406 C 205.007812 103.902344 210.039062 108.929688 216.246094 108.929688 L 238.722656 108.929688 L 289.289062 159.5 L 272.433594 108.929688 L 300.527344 108.929688 C 306.734375 108.929688 311.765625 103.902344 311.765625 97.691406 Z M 287.644531 85.09375 L 279.699219 93.039062 L 261.195312 74.539062 L 242.695312 93.039062 L 234.75 85.09375 L 253.25 66.59375 L 234.75 48.089844 L 242.695312 40.144531 L 261.195312 58.648438 L 279.699219 40.144531 L 287.644531 48.089844 L 269.140625 66.59375 Z M 287.644531 85.09375 "/>
</g>
</g>
</svg>
