<?xml version="1.0" encoding="UTF-8"?>
<svg xmlns="http://www.w3.org/2000/svg" xmlns:xlink="http://www.w3.org/1999/xlink" width="375pt" height="374.999991pt" viewBox="0 0 375 374.999991" version="1.2">
<defs>
<clipPath id="clip1">
  <path d="M 22.882812 25.183594 L 349.882812 25.183594 L 349.882812 352.183594 L 22.882812 352.183594 Z M 22.882812 25.183594 "/>
</clipPath>
<clipPath id="clip2">
  <path d="M 205 25.183594 L 349.882812 25.183594 L 349.882812 170 L 205 170 Z M 205 25.183594 "/>
</clipPath>
<clipPath id="clip3">
  <path d="M 22.882812 225 L 150 225 L 150 352.183594 L 22.882812 352.183594 Z M 22.882812 225 "/>
</clipPath>
</defs>
<g id="surface1">
<g clip-path="url(#clip1)" clip-rule="nonzero">
<path style=" stroke:none;fill-rule:nonzero;fill:rgb(0%,0%,0%);fill-opacity:1;" d="M 340.664062 298.128906 L 168.792969 126.234375 C 171.726562 118.191406 173.34375 109.488281 173.34375 100.40625 C 173.34375 58.863281 139.667969 25.1875 98.109375 25.1875 C 91.660156 25.1875 85.414062 26.007812 79.445312 27.523438 L 123.71875 71.820312 C 130.964844 79.046875 124.917969 96.832031 110.246094 111.503906 C 95.554688 126.195312 77.769531 132.246094 70.542969 125 L 25.667969 80.125 C 23.847656 86.570312 22.890625 93.398438 22.890625 100.40625 C 22.890625 141.945312 56.566406 175.640625 98.109375 175.640625 C 107.191406 175.640625 115.894531 174.023438 123.941406 171.070312 L 295.832031 342.945312 C 301.558594 348.695312 309.484375 352.246094 318.246094 352.246094 C 335.753906 352.246094 349.945312 338.054688 349.945312 320.546875 C 349.945312 311.785156 346.394531 303.859375 340.664062 298.128906 Z M 318.246094 333.082031 C 311.320312 333.082031 305.710938 327.453125 305.710938 320.546875 C 305.710938 313.621094 311.320312 308.011719 318.246094 308.011719 C 325.175781 308.011719 330.785156 313.621094 330.785156 320.546875 C 330.785156 327.453125 325.175781 333.082031 318.246094 333.082031 Z M 318.246094 333.082031 "/>
</g>
<g clip-path="url(#clip2)" clip-rule="nonzero">
<path style=" stroke:none;fill-rule:nonzero;fill:rgb(0%,0%,0%);fill-opacity:1;" d="M 282.457031 62.597656 L 292.476562 72.636719 L 227.28125 137.8125 L 237.300781 147.835938 L 302.496094 82.660156 L 312.519531 92.679688 L 247.324219 157.855469 L 258.898438 169.433594 L 338.925781 89.386719 C 345.734375 82.578125 349.945312 73.195312 349.945312 62.796875 C 349.945312 42.035156 333.117188 25.1875 312.335938 25.1875 C 301.917969 25.1875 292.496094 29.417969 285.6875 36.246094 L 205.703125 116.234375 L 217.28125 127.792969 Z M 282.457031 62.597656 "/>
</g>
<g clip-path="url(#clip3)" clip-rule="nonzero">
<path style=" stroke:none;fill-rule:nonzero;fill:rgb(0%,0%,0%);fill-opacity:1;" d="M 69.941406 287.148438 L 51.277344 289.324219 L 22.890625 334.179688 L 40.617188 351.925781 L 40.859375 351.6875 L 40.9375 352.246094 L 85.792969 323.839844 L 88.046875 304.476562 L 149.269531 243.273438 L 131.523438 225.546875 Z M 69.941406 287.148438 "/>
</g>
</g>
</svg>
