<?xml version="1.0" encoding="utf-8"?>
<!-- Generator: Adobe Illustrator 26.0.0, SVG Export Plug-In . SVG Version: 6.00 Build 0)  -->
<svg version="1.1" id="Layer_1" xmlns="http://www.w3.org/2000/svg" xmlns:xlink="http://www.w3.org/1999/xlink" x="0px" y="0px"
	 viewBox="0 0 463.8 172.7" style="enable-background:new 0 0 463.8 172.7;" xml:space="preserve">
<style type="text/css">
	.st0{fill:#FFFFFF;}
	.st1{font-family:'Tahoma-Bold';}
	.st2{font-size:108.2654px;}
	.st3{letter-spacing:14;}
</style>
<g id="Layer_2_00000164482166787583893770000014173133135300660632_">
	<g id="Layer_1-2">
		<path class="st0" d="M12.4,76.5c0,12.5,3.2,34.1,14.9,49.2c15.3,19.8,37.7,33.3,54.3,38.4v-12.3c-19.6-6.4-46.3-20.1-62.2-49.1
			c0,0,19.9,31.8,62.2,43.4v-12.3c-13-3.4-25.7-8.1-35.1-14.6C19.3,101.9,13.6,81.4,12.4,76.5z"/>
		<path class="st0" d="M119.6,119.2c-9.5,6.5-22.2,11.2-35.1,14.6v12.3c42.3-11.5,62.2-43.4,62.2-43.4c-15.8,29-42.6,42.7-62.2,49.1
			v12.3c16.6-5.1,39-18.6,54.3-38.4c11.7-15.1,14.9-36.8,14.9-49.3C152.5,81.4,146.8,101.9,119.6,119.2z"/>
		<path class="st0" d="M91.9,124.3c6.2-1.4,13.2-4.1,21.6-8.9c30.3-17.3,40-35.3,40-53.3S134.9,8.5,134.9,8.5s7.7,32.1,6.7,46
			s-10.7,24.2-32,35.9c-5.1,2.9-10.5,5.2-16.1,6.7c-2.2,0.5-4.9-0.5-5.8-2.6c-0.5-1.4-0.8-2.9-0.9-4.3c-0.9-9.5-3.6-43.4-3.6-43.4
			l0,0c0,0-2.7,33.9-3.6,43.4c-0.1,1.5-0.4,3-0.9,4.4c-0.8,2.1-3.6,3.1-5.8,2.6c-5.7-1.5-11.1-3.7-16.2-6.6
			c-21.3-11.7-31-22-32-35.9s6.7-46.1,6.7-46.1S12.6,44.2,12.6,62.2s9.7,36,40,53.3c8.5,4.8,15.4,7.5,21.6,8.9
			c1.8,0.5,3.7,0.8,5.6,1c1.2,0.1,2.2,0.2,3.3,0.2s2.2-0.1,3.3-0.2C88.3,125.2,90.1,124.8,91.9,124.3z"/>
	</g>
</g>
<text id="XMLID_109_" transform="matrix(1 0 0 1 178.959 132.2701)" class="st0 st1 st2 st3">EMS</text>
</svg>
