<?xml version="1.0" encoding="utf-8"?>
<!-- Generator: Adobe Illustrator 26.0.0, SVG Export Plug-In . SVG Version: 6.00 Build 0)  -->
<svg version="1.1" id="Layer_1" xmlns="http://www.w3.org/2000/svg" xmlns:xlink="http://www.w3.org/1999/xlink" x="0px" y="0px"
	 viewBox="0 0 365.98 285.93" style="enable-background:new 0 0 365.98 285.93;" xml:space="preserve">
<style type="text/css">
	.st0{clip-path:url(#SVGID_00000164498583125646363580000004333141797903605910_);}
	.st1{font-family:'MyriadPro-Regular';}
	.st2{font-size:12px;}
	.st3{fill:#FFFFFF;stroke:#FFFFFF;stroke-miterlimit:10;}
</style>
<g id="surface1">
	<path d="M3.97,67.94h63.8V4.15L3.97,67.94z"/>
	<g>
		<defs>
			<rect id="SVGID_1_" width="365.98" height="284.96"/>
		</defs>
		<clipPath id="SVGID_00000136387375679551898910000010549648368219572925_">
			<use xlink:href="#SVGID_1_"  style="overflow:visible;"/>
		</clipPath>
		<g style="clip-path:url(#SVGID_00000136387375679551898910000010549648368219572925_);">
			<path d="M81.33,74.72c0,3.75-3.04,6.78-6.78,6.78H0v196.52c0,3.74,3.04,6.78,6.78,6.78H359.2c3.75,0,6.78-3.04,6.78-6.78V6.95
				c0-3.75-3.03-6.78-6.78-6.78H81.33V74.72z"/>
		</g>
	</g>
</g>
<text transform="matrix(1 0 0 1 87.2793 232.9308)" class="st1 st2">a5</text>
<g>
	<g>
		<path class="st3" d="M281.84,213.07h5.61l17.27,46.86h-7.09l-12.99-37.8l-12.99,37.8h-7.09L281.84,213.07z M272.53,243.4h24.65
			v6.25h-24.65V243.4z"/>
		<path class="st3" d="M317.63,259.03c-1.84-0.92-3.33-2.27-4.48-4.03c-1.15-1.76-1.92-3.88-2.3-6.35v-0.03h6.57v0.03
			c0.24,1.72,0.92,3.06,2.06,4.01c1.14,0.96,2.62,1.43,4.45,1.43c2.11,0,3.73-0.7,4.88-2.11c1.15-1.41,1.72-3.39,1.72-5.95v-3.93
			c0-2.53-0.58-4.51-1.72-5.91c-1.15-1.41-2.78-2.11-4.88-2.11c-1.14,0-2.23,0.32-3.29,0.97s-1.98,1.55-2.77,2.71h-5.99v-24.69
			h23.88v6.25h-17.31v10.54c0.82-0.67,1.73-1.18,2.74-1.55c1.01-0.37,2.04-0.55,3.09-0.55c2.71,0,5.02,0.56,6.94,1.68
			s3.38,2.75,4.38,4.9c1,2.15,1.5,4.74,1.5,7.77v3.93c0,3.03-0.52,5.62-1.55,7.77s-2.54,3.79-4.51,4.91
			c-1.98,1.13-4.35,1.69-7.12,1.69C321.57,260.41,319.47,259.95,317.63,259.03z"/>
	</g>
</g>
</svg>
