<?xml version="1.0" encoding="UTF-8"?>
<svg xmlns="http://www.w3.org/2000/svg" xmlns:xlink="http://www.w3.org/1999/xlink" width="375pt" height="374.999991pt" viewBox="0 0 375 374.999991" version="1.2">
<defs>
<clipPath id="clip1">
  <path d="M 23.714844 24.722656 L 349.660156 24.722656 L 349.660156 350.667969 L 23.714844 350.667969 Z M 23.714844 24.722656 "/>
</clipPath>
</defs>
<g id="surface1">
<g clip-path="url(#clip1)" clip-rule="nonzero">
<path style=" stroke:none;fill-rule:nonzero;fill:rgb(0%,0%,0%);fill-opacity:1;" d="M 186.6875 24.789062 C 96.714844 24.789062 23.78125 97.726562 23.78125 187.695312 C 23.78125 277.664062 96.714844 350.601562 186.6875 350.601562 C 276.65625 350.601562 349.589844 277.664062 349.589844 187.695312 C 349.589844 97.726562 276.65625 24.789062 186.6875 24.789062 Z M 186.6875 331.792969 C 107.101562 331.792969 42.589844 267.277344 42.589844 187.695312 C 42.589844 108.113281 107.101562 43.597656 186.6875 43.597656 C 266.269531 43.597656 330.78125 108.113281 330.78125 187.695312 C 330.78125 267.277344 266.269531 331.792969 186.6875 331.792969 Z M 186.6875 331.792969 "/>
</g>
<path style=" stroke:none;fill-rule:nonzero;fill:rgb(0%,0%,0%);fill-opacity:1;" d="M 186.6875 85.148438 C 149.21875 85.148438 118.851562 115.519531 118.851562 152.984375 C 118.851562 190.449219 149.21875 220.820312 186.6875 220.820312 C 224.152344 220.820312 254.519531 190.449219 254.519531 152.984375 C 254.519531 115.523438 224.152344 85.148438 186.6875 85.148438 Z M 186.6875 202.144531 C 159.539062 202.144531 137.53125 180.136719 137.53125 152.992188 C 137.53125 125.84375 159.539062 103.835938 186.6875 103.835938 C 213.832031 103.835938 235.839844 125.84375 235.839844 152.992188 C 235.839844 180.136719 213.832031 202.144531 186.6875 202.144531 Z M 186.6875 202.144531 "/>
<path style=" stroke:none;fill-rule:nonzero;fill:rgb(0%,0%,0%);fill-opacity:1;" d="M 186.6875 202.164062 C 142.816406 202.164062 104.96875 227.539062 86.738281 264.359375 C 90.878906 269.753906 95.433594 274.792969 100.378906 279.453125 C 114.035156 245.125 147.488281 220.824219 186.6875 220.824219 C 225.882812 220.824219 259.335938 245.125 272.996094 279.453125 C 277.9375 274.800781 282.492188 269.757812 286.632812 264.359375 C 268.402344 227.539062 230.554688 202.164062 186.6875 202.164062 Z M 186.6875 202.164062 "/>
</g>
</svg>
