<?xml version="1.0" encoding="UTF-8"?>
<svg xmlns="http://www.w3.org/2000/svg" xmlns:xlink="http://www.w3.org/1999/xlink" width="375pt" height="374.999991pt" viewBox="0 0 375 374.999991" version="1.2">
<defs>
<clipPath id="clip1">
  <path d="M 19.40625 12.144531 L 362.90625 12.144531 L 362.90625 355.644531 L 19.40625 355.644531 Z M 19.40625 12.144531 "/>
</clipPath>
</defs>
<g id="surface1">
<g clip-path="url(#clip1)" clip-rule="nonzero">
<path style=" stroke:none;fill-rule:nonzero;fill:rgb(0%,0%,0%);fill-opacity:1;" d="M 191.1875 12.144531 C 96.316406 12.144531 19.40625 89.054688 19.40625 183.925781 C 19.40625 278.796875 96.316406 355.703125 191.1875 355.703125 C 286.058594 355.703125 362.964844 278.796875 362.964844 183.925781 C 362.863281 89.097656 286.015625 12.25 191.1875 12.144531 Z M 251.910156 224.421875 C 257.5 230.011719 257.5 239.074219 251.910156 244.664062 C 246.242188 250.054688 237.339844 250.054688 231.671875 244.664062 L 191.1875 204.167969 L 150.703125 244.664062 C 145.082031 250.171875 136.085938 250.171875 130.464844 244.664062 C 124.875 239.074219 124.875 230.011719 130.464844 224.421875 L 170.945312 183.925781 L 130.464844 143.429688 C 124.777344 137.933594 124.621094 128.875 130.113281 123.1875 C 135.605469 117.5 144.667969 117.34375 150.351562 122.835938 C 150.472656 122.949219 150.589844 123.066406 150.703125 123.1875 L 191.1875 163.683594 L 231.671875 123.1875 C 237.164062 117.5 246.226562 117.34375 251.910156 122.835938 C 257.597656 128.328125 257.753906 137.390625 252.261719 143.074219 C 252.148438 143.195312 252.03125 143.3125 251.910156 143.429688 L 211.429688 183.925781 Z M 251.910156 224.421875 "/>
</g>
</g>
</svg>
