<?xml version="1.0" encoding="utf-8"?>
<!-- Generator: Adobe Illustrator 26.0.0, SVG Export Plug-In . SVG Version: 6.00 Build 0)  -->
<svg version="1.1" id="Layer_1" xmlns="http://www.w3.org/2000/svg" xmlns:xlink="http://www.w3.org/1999/xlink" x="0px" y="0px"
	 viewBox="0 0 560.39 89.37" style="enable-background:new 0 0 560.39 89.37;" xml:space="preserve">
<style type="text/css">
	.st0{fill:#21409A;}
	.st1{fill:none;stroke:#21409A;stroke-width:3;stroke-miterlimit:10;}
	.st2{fill:#15559E;}
</style>
<g id="XMLID_2_">
	<g id="XMLID_00000170248038082725764280000014464089201865337485_">
		<path class="st0" d="M38.86,17.3h3.71v25.12h-3.71V17.3z M41.37,39.06h5.98c1.95,0,3.46-0.48,4.54-1.44
			c1.07-0.96,1.61-2.32,1.61-4.07v-7.39c0-1.75-0.54-3.11-1.61-4.07c-1.07-0.96-2.58-1.44-4.54-1.44h-5.98V17.3h5.87
			c2.12,0,3.93,0.35,5.44,1.05c1.5,0.7,2.65,1.73,3.44,3.07c0.79,1.35,1.18,2.97,1.18,4.87v7.12c0,1.9-0.39,3.52-1.18,4.87
			c-0.79,1.35-1.94,2.37-3.45,3.07c-1.51,0.7-3.32,1.05-5.45,1.05h-5.85V39.06z"/>
		<path class="st0" d="M63.6,17.3h3.71v25.12H63.6V17.3z M65.4,17.3h15.18v3.35H65.4V17.3z M65.4,28.27h13.18v3.35H65.4V28.27z
			 M65.4,39.06h15.18v3.35H65.4V39.06z"/>
		<path class="st0" d="M90.48,42.33c-1.14-0.23-2.2-0.58-3.19-1.04c-0.99-0.46-1.91-1.04-2.77-1.73l2.31-2.69
			c1.01,0.83,2.12,1.45,3.33,1.87c1.21,0.41,2.53,0.62,3.95,0.62c1.92,0,3.4-0.34,4.46-1.01c1.05-0.67,1.58-1.63,1.58-2.86v-0.02
			c0-0.88-0.24-1.57-0.72-2.08c-0.48-0.51-1.1-0.89-1.85-1.14c-0.76-0.25-1.74-0.48-2.94-0.68c-0.04-0.01-0.08-0.02-0.12-0.02
			c-0.04,0-0.08-0.01-0.12-0.02l-0.27-0.05c-1.77-0.29-3.21-0.61-4.32-0.98c-1.11-0.36-2.06-1.02-2.85-1.99
			c-0.79-0.96-1.18-2.33-1.18-4.1V24.4c0-1.55,0.37-2.88,1.1-3.98c0.73-1.1,1.8-1.94,3.21-2.51c1.41-0.58,3.1-0.86,5.07-0.86
			c0.95,0,1.88,0.1,2.79,0.29c0.92,0.2,1.82,0.49,2.71,0.87c0.89,0.39,1.77,0.87,2.63,1.46l-2.11,2.8c-1.01-0.7-2.01-1.23-3.01-1.58
			s-2-0.53-3.01-0.53c-1.81,0-3.21,0.34-4.21,1.03s-1.5,1.66-1.5,2.91v0.02c0,0.86,0.26,1.54,0.77,2.04s1.16,0.86,1.93,1.1
			c0.77,0.24,1.84,0.48,3.21,0.73c0.05,0.01,0.09,0.02,0.14,0.03c0.04,0.01,0.09,0.01,0.14,0.03c0.06,0.01,0.13,0.02,0.2,0.03
			c0.07,0.01,0.14,0.02,0.2,0.03c1.6,0.31,2.94,0.68,4.01,1.11c1.07,0.43,1.97,1.11,2.69,2.06s1.08,2.25,1.08,3.9v0.03
			c0,1.53-0.38,2.84-1.15,3.93s-1.87,1.92-3.32,2.49c-1.45,0.57-3.2,0.86-5.25,0.86C92.83,42.67,91.62,42.56,90.48,42.33z"/>
		<path class="st0" d="M113.09,42.41h-3.71V17.3h3.71V42.41z"/>
		<path class="st0" d="M138.01,28.89v4.39c0,1.87-0.38,3.51-1.15,4.93s-1.85,2.52-3.25,3.3s-3.02,1.17-4.86,1.17
			c-1.87,0-3.51-0.37-4.92-1.1c-1.41-0.73-2.51-1.76-3.28-3.1s-1.16-2.88-1.16-4.65v-7.41c0-1.87,0.38-3.51,1.15-4.92
			s1.85-2.51,3.25-3.29c1.4-0.78,3.02-1.17,4.86-1.17c1.52,0,2.91,0.31,4.19,0.92c1.28,0.62,2.35,1.49,3.21,2.62
			c0.86,1.13,1.44,2.44,1.75,3.92h-4.02c-0.22-0.84-0.59-1.56-1.11-2.17c-0.52-0.6-1.13-1.06-1.84-1.38
			c-0.7-0.32-1.43-0.48-2.18-0.48c-1.09,0-2.05,0.25-2.87,0.74c-0.82,0.5-1.46,1.19-1.91,2.08c-0.45,0.89-0.67,1.93-0.67,3.12v7.41
			c0,1.08,0.23,2.03,0.69,2.84c0.46,0.81,1.11,1.44,1.95,1.89c0.84,0.45,1.82,0.67,2.92,0.67c1.09,0,2.05-0.23,2.87-0.7
			s1.46-1.14,1.91-2.03c0.45-0.89,0.67-1.94,0.67-3.16v-1.09h-5.36v-3.37H138.01z"/>
		<path class="st0" d="M144.31,17.3h3.36l12.93,19.42l-0.44,0.45V17.3h3.67v25.1h-3.4l-12.89-19.12l0.44-0.45V42.4h-3.67V17.3z"/>
		<path class="st0" d="M170.68,17.3h3.71v25.12h-3.71V17.3z M172.48,17.3h15.18v3.35h-15.18V17.3z M172.48,28.27h13.18v3.35h-13.18
			V28.27z M172.48,39.06h15.18v3.35h-15.18V39.06z"/>
		<path class="st0" d="M193.23,17.3h3.71v25.12h-3.71V17.3z M195.74,39.06h5.98c1.95,0,3.46-0.48,4.54-1.44
			c1.07-0.96,1.61-2.32,1.61-4.07v-7.39c0-1.75-0.54-3.11-1.61-4.07c-1.07-0.96-2.58-1.44-4.54-1.44h-5.98V17.3h5.87
			c2.12,0,3.93,0.35,5.44,1.05c1.5,0.7,2.65,1.73,3.44,3.07c0.79,1.35,1.18,2.97,1.18,4.87v7.12c0,1.9-0.39,3.52-1.18,4.87
			c-0.79,1.35-1.94,2.37-3.45,3.07c-1.51,0.7-3.32,1.05-5.45,1.05h-5.85V39.06z"/>
		<path class="st0" d="M230.35,32.45c-0.75,0.71-1.13,1.72-1.13,3.02c0,1.28,0.4,2.27,1.2,2.98c0.8,0.71,1.93,1.06,3.38,1.06
			c1.38,0,2.56-0.39,3.55-1.16c0.99-0.77,1.74-1.89,2.25-3.36c0.51-1.47,0.77-3.24,0.77-5.31h3.21c0,2.74-0.41,5.08-1.23,7.02
			c-0.82,1.94-2.02,3.42-3.6,4.44c-1.58,1.02-3.48,1.53-5.69,1.53c-1.5,0-2.78-0.28-3.85-0.85c-1.06-0.56-1.88-1.38-2.43-2.46
			c-0.56-1.08-0.84-2.38-0.84-3.9c0-2.05,0.54-3.69,1.62-4.92s2.61-1.95,4.58-2.14l1.39,2.97C232.17,31.38,231.1,31.73,230.35,32.45
			z M231.94,32.43c-0.77-0.84-1.43-1.72-1.97-2.63c-0.54-0.91-0.95-1.85-1.24-2.82c-0.29-0.97-0.43-1.97-0.43-2.98
			c0-2.2,0.56-3.9,1.69-5.1c1.13-1.2,2.71-1.81,4.77-1.81c2.04,0,3.62,0.58,4.74,1.74c1.12,1.16,1.68,2.8,1.68,4.91v0.35h-3.38
			v-0.35c0-1.02-0.26-1.82-0.79-2.38c-0.53-0.56-1.28-0.84-2.25-0.84c-0.98,0-1.74,0.3-2.28,0.91s-0.8,1.46-0.8,2.56
			c0,0.67,0.1,1.36,0.31,2.07c0.21,0.71,0.52,1.42,0.93,2.12c0.41,0.7,0.9,1.37,1.47,2l11,12.21h-4.29L231.94,32.43z"/>
		<path class="st0" d="M38.86,48.63h3.71v25.12h-3.71V48.63z M41.37,70.39h5.98c1.95,0,3.46-0.48,4.54-1.44
			c1.07-0.96,1.61-2.32,1.61-4.07v-7.39c0-1.75-0.54-3.11-1.61-4.07c-1.07-0.96-2.58-1.44-4.54-1.44h-5.98v-3.35h5.87
			c2.12,0,3.93,0.35,5.44,1.05c1.5,0.7,2.65,1.73,3.44,3.07c0.79,1.35,1.18,2.97,1.18,4.87v7.12c0,1.9-0.39,3.52-1.18,4.87
			c-0.79,1.35-1.94,2.37-3.45,3.07c-1.51,0.7-3.32,1.05-5.45,1.05h-5.85V70.39z"/>
		<path class="st0" d="M64.16,48.63h3.71v25.12h-3.71V48.63z M65.96,48.63h15.18v3.35H65.96V48.63z M65.96,59.59h13.18v3.35H65.96
			V59.59z M65.96,70.39h15.18v3.35H65.96V70.39z"/>
		<path class="st0" d="M84.54,48.63h4.04l6.35,19.69l6.35-19.69h4.04l-8.62,25.12h-3.53L84.54,48.63z"/>
		<path class="st0" d="M109.98,48.63h3.71v25.12h-3.71V48.63z M111.78,48.63h15.18v3.35h-15.18V48.63z M111.78,59.59h13.18v3.35
			h-13.18V59.59z M111.78,70.39h15.18v3.35h-15.18V70.39z"/>
		<path class="st0" d="M133.1,48.63h3.71v25.12h-3.71V48.63z M134.95,70.39h15.13v3.35h-15.13V70.39z"/>
		<path class="st0" d="M159.17,72.85c-1.41-0.77-2.49-1.85-3.26-3.25c-0.77-1.4-1.15-3.02-1.15-4.86v-7.12
			c0-1.84,0.38-3.46,1.15-4.86c0.77-1.4,1.86-2.48,3.26-3.25c1.41-0.77,3.03-1.15,4.87-1.15s3.47,0.38,4.87,1.15
			c1.41,0.77,2.49,1.85,3.26,3.25c0.77,1.4,1.15,3.02,1.15,4.86v7.12c0,1.84-0.39,3.46-1.15,4.86c-0.77,1.4-1.86,2.48-3.26,3.25
			c-1.41,0.77-3.03,1.15-4.87,1.15S160.58,73.62,159.17,72.85z M166.93,69.83c0.83-0.47,1.47-1.13,1.93-1.99s0.68-1.85,0.68-2.98
			V57.5c0-1.13-0.23-2.12-0.68-2.98c-0.45-0.86-1.1-1.52-1.93-1.99c-0.83-0.47-1.79-0.7-2.88-0.7c-1.09,0-2.05,0.23-2.88,0.7
			c-0.83,0.47-1.47,1.13-1.93,1.99c-0.45,0.86-0.68,1.85-0.68,2.98v7.36c0,1.13,0.23,2.12,0.68,2.98s1.1,1.52,1.93,1.99
			c0.83,0.47,1.79,0.7,2.88,0.7C165.14,70.53,166.1,70.3,166.93,69.83z"/>
		<path class="st0" d="M180.2,48.63h3.71v25.12h-3.71V48.63z M182.11,60.65h8.46c0.8,0,1.5-0.18,2.11-0.54
			c0.61-0.36,1.08-0.86,1.41-1.52c0.33-0.66,0.5-1.41,0.5-2.26c0-0.86-0.17-1.62-0.5-2.28c-0.33-0.66-0.8-1.17-1.41-1.53
			c-0.61-0.36-1.31-0.54-2.11-0.54h-8.46v-3.35h8.33c1.58,0,2.96,0.32,4.16,0.96s2.13,1.54,2.79,2.7s0.99,2.51,0.99,4.04
			c0,1.53-0.33,2.88-0.99,4.03s-1.59,2.05-2.79,2.69c-1.2,0.63-2.59,0.95-4.16,0.95h-8.33V60.65z"/>
		<path class="st0" d="M204.24,48.63h3.71v25.12h-3.71V48.63z M206.04,48.63h15.18v3.35h-15.18V48.63z M206.04,59.59h13.18v3.35
			h-13.18V59.59z M206.04,70.39h15.18v3.35h-15.18V70.39z"/>
		<path class="st0" d="M227.35,48.63h3.71v25.12h-3.71V48.63z M229.86,70.39h5.98c1.95,0,3.46-0.48,4.54-1.44
			c1.07-0.96,1.61-2.32,1.61-4.07v-7.39c0-1.75-0.54-3.11-1.61-4.07c-1.07-0.96-2.58-1.44-4.54-1.44h-5.98v-3.35h5.87
			c2.12,0,3.93,0.35,5.44,1.05c1.5,0.7,2.65,1.73,3.44,3.07c0.79,1.35,1.18,2.97,1.18,4.87v7.12c0,1.9-0.39,3.52-1.18,4.87
			c-0.79,1.35-1.94,2.37-3.45,3.07c-1.51,0.7-3.32,1.05-5.45,1.05h-5.85V70.39z"/>
	</g>
</g>
<path id="XMLID_3_" class="st1" d="M515.25,87.14H45.92c-23.34,0-42.26-18.92-42.26-42.26v0c0-23.34,18.92-42.26,42.26-42.26
	l469.34,0c23.34,0,42.26,18.92,42.26,42.26v0C557.52,68.22,538.6,87.14,515.25,87.14z"/>
<g id="XMLID_1_">
	<polygon id="XMLID_7_" class="st2" points="442.26,30.21 444.96,61.44 447.67,30.21 	"/>
	<g id="XMLID_222_">
		<path id="XMLID_230_" class="st2" d="M310.38,72.67h-7.23l-29.08-44.1v44.1h-7.23V17.22h7.23l29.08,44.02V17.22h7.23V72.67z"/>
		<path id="XMLID_228_" class="st2" d="M355.91,71.93l-34.47-27.23l34.47-27.11h16.45l-34.61,27.11l34.61,27.23H355.91z"/>
		<path id="XMLID_225_" class="st2" d="M391.39,69.61c-4.24-2.41-7.59-5.77-10.05-10.09c-2.46-4.32-3.69-9.18-3.69-14.58
			c0-5.4,1.23-10.26,3.69-14.58c2.46-4.32,5.81-7.68,10.05-10.09c4.24-2.41,8.92-3.62,14.06-3.62c5.19,0,9.9,1.21,14.14,3.62
			c4.24,2.41,7.57,5.76,10.01,10.05c2.44,4.29,3.65,9.16,3.65,14.62c0,5.46-1.22,10.33-3.65,14.62c-2.44,4.29-5.77,7.64-10.01,10.05
			c-4.24,2.41-8.95,3.61-14.14,3.61C400.32,73.23,395.63,72.02,391.39,69.61z M415.91,64.25c3.1-1.8,5.53-4.37,7.31-7.71
			c1.77-3.34,2.66-7.2,2.66-11.6c0-4.45-0.89-8.33-2.66-11.64c-1.78-3.31-4.2-5.87-7.27-7.67c-3.07-1.8-6.57-2.7-10.49-2.7
			c-3.92,0-7.42,0.9-10.49,2.7c-3.07,1.8-5.5,4.36-7.27,7.67c-1.78,3.31-2.66,7.19-2.66,11.64c0,4.4,0.89,8.26,2.66,11.6
			c1.77,3.34,4.21,5.91,7.31,7.71c3.1,1.8,6.58,2.7,10.45,2.7C409.32,66.95,412.81,66.05,415.91,64.25z"/>
		<path id="XMLID_223_" class="st2" d="M509.54,23.17v18.51h20.18v5.96h-20.18v19.07h22.56v5.96h-29.79V17.22h29.79v5.96H509.54z"/>
	</g>
	<path id="XMLID_220_" class="st2" d="M441.97,72.73l34.61-27.23l-34.61-27.11h16.45l34.47,27.11l-34.47,27.23H441.97z"/>
</g>
</svg>
