<?xml version="1.0" encoding="UTF-8"?>
<svg xmlns="http://www.w3.org/2000/svg" xmlns:xlink="http://www.w3.org/1999/xlink" width="375pt" height="374.999991pt" viewBox="0 0 375 374.999991" version="1.2">
<defs>
<clipPath id="clip1">
  <path d="M 45.214844 4.820312 L 337.714844 4.820312 L 337.714844 369.964844 L 45.214844 369.964844 Z M 45.214844 4.820312 "/>
</clipPath>
</defs>
<g id="surface1">
<g clip-path="url(#clip1)" clip-rule="nonzero">
<path style=" stroke:none;fill-rule:nonzero;fill:rgb(0%,0%,0%);fill-opacity:1;" d="M 45.214844 4.824219 L 45.214844 260.421875 L 96.863281 260.421875 C 101.894531 260.421875 106.523438 258.101562 109.59375 254.050781 L 114.097656 248.132812 L 142.070312 269.585938 L 137.570312 275.484375 C 128.347656 287.625 112.066406 296.933594 96.863281 296.933594 C 96.84375 296.933594 96.824219 296.933594 96.808594 296.933594 L 45.214844 296.933594 L 45.214844 369.960938 L 156.066406 369.960938 L 186.835938 289.6875 C 188.683594 284.957031 188.0625 279.773438 185.484375 275.554688 L 133.835938 239.460938 C 120.261719 229.53125 116.621094 210.871094 125.457031 196.578125 L 159.429688 137.167969 L 142.601562 134.375 C 138.757812 133.042969 134.3125 133.316406 130.414062 135.253906 L 77.980469 161.433594 L 63.511719 132.625 L 115.960938 106.425781 C 127.6875 100.582031 142.875 97.132812 155.296875 101.40625 L 175.804688 108.871094 L 203.90625 121.378906 C 213.601562 125.703125 221.636719 133.300781 226.484375 142.738281 L 239.417969 160.375 C 242.199219 165.757812 246.863281 169.136719 252.917969 169.136719 L 301.347656 169.136719 L 301.347656 205.652344 L 253.742188 205.613281 C 235.539062 205.613281 219.054688 195.574219 210.710938 179.378906 L 203.761719 169.082031 L 174.910156 220.988281 L 206.90625 249.703125 C 220.484375 263.269531 224.761719 283.570312 217.792969 301.390625 L 191.574219 369.960938 L 337.9375 369.960938 L 337.9375 4.824219 Z M 223.847656 114.367188 C 206.011719 114.367188 191.558594 99.945312 191.558594 82.144531 C 191.558594 64.34375 206.011719 49.921875 223.847656 49.921875 C 241.6875 49.921875 256.140625 64.34375 256.140625 82.144531 C 256.140625 99.945312 241.6875 114.367188 223.847656 114.367188 Z M 223.847656 114.367188 "/>
</g>
</g>
</svg>
