<?xml version="1.0" encoding="UTF-8"?>
<svg xmlns="http://www.w3.org/2000/svg" xmlns:xlink="http://www.w3.org/1999/xlink" width="375pt" height="374.999991pt" viewBox="0 0 375 374.999991" version="1.2">
<defs>
<clipPath id="clip1">
  <path d="M 1.25 47.8125 L 374 47.8125 L 374 327.5625 L 1.25 327.5625 Z M 1.25 47.8125 "/>
</clipPath>
</defs>
<g id="surface1">
<g clip-path="url(#clip1)" clip-rule="nonzero">
<path style=" stroke:none;fill-rule:nonzero;fill:rgb(0%,0%,0%);fill-opacity:1;" d="M 335.402344 47.8125 L 40.101562 47.8125 C 18.6875 47.8125 1.25 65.273438 1.25 86.71875 L 1.25 94.5 L 374.257812 94.5 L 374.257812 86.71875 C 374.257812 65.273438 356.816406 47.8125 335.402344 47.8125 Z M 1.25 289.027344 C 1.25 310.472656 18.6875 327.933594 40.101562 327.933594 L 335.402344 327.933594 C 356.816406 327.933594 374.257812 310.472656 374.257812 289.027344 L 374.257812 110.0625 L 1.25 110.0625 Z M 335.402344 265.683594 L 273.234375 265.683594 C 268.945312 265.683594 265.460938 262.199219 265.460938 257.902344 C 265.460938 253.609375 268.945312 250.121094 273.234375 250.121094 L 335.402344 250.121094 C 339.691406 250.121094 343.171875 253.609375 343.171875 257.902344 C 343.171875 262.199219 339.691406 265.683594 335.402344 265.683594 Z M 304.316406 156.75 L 335.402344 156.75 C 339.691406 156.75 343.171875 160.234375 343.171875 164.53125 C 343.171875 168.824219 339.691406 172.3125 335.402344 172.3125 L 304.316406 172.3125 C 300.027344 172.3125 296.546875 168.824219 296.546875 164.53125 C 296.546875 160.234375 300.027344 156.75 304.316406 156.75 Z M 226.605469 156.75 L 273.234375 156.75 C 277.523438 156.75 281.003906 160.234375 281.003906 164.53125 C 281.003906 168.824219 277.523438 172.3125 273.234375 172.3125 L 226.605469 172.3125 C 222.316406 172.3125 218.835938 168.824219 218.835938 164.53125 C 218.835938 160.234375 222.316406 156.75 226.605469 156.75 Z M 226.605469 203.4375 L 335.402344 203.4375 C 339.691406 203.4375 343.171875 206.921875 343.171875 211.21875 C 343.171875 215.511719 339.691406 219 335.402344 219 L 226.605469 219 C 222.316406 219 218.835938 215.511719 218.835938 211.21875 C 218.835938 206.921875 222.316406 203.4375 226.605469 203.4375 Z M 226.605469 250.121094 L 242.148438 250.121094 C 246.4375 250.121094 249.921875 253.609375 249.921875 257.902344 C 249.921875 262.199219 246.4375 265.683594 242.148438 265.683594 L 226.605469 265.683594 C 222.316406 265.683594 218.835938 262.199219 218.835938 257.902344 C 218.835938 253.609375 222.316406 250.121094 226.605469 250.121094 Z M 64.425781 247.851562 L 87.753906 242.015625 L 88.890625 237.441406 C 83.214844 230.917969 79.175781 222.703125 77.402344 214.222656 C 72.664062 212.152344 69.445312 207.949219 68.808594 202.875 L 67.117188 189.335938 C 66.601562 185.183594 67.890625 181.027344 70.644531 177.898438 C 71.558594 176.855469 72.617188 175.96875 73.765625 175.238281 C 73.332031 171.222656 72.867188 166.414062 72.867188 163.847656 C 72.867188 150.820312 76.628906 133.5625 108.613281 132.425781 C 119.476562 125.625 130.652344 125.625 135.59375 125.625 C 152.394531 125.625 160.785156 133.0625 164.859375 139.289062 C 173.453125 152.421875 168.03125 161.527344 164.019531 165.792969 L 162.589844 167.222656 L 162.1875 175.472656 C 163.226562 176.171875 164.191406 177.011719 165.03125 177.976562 C 167.734375 181.089844 169.007812 185.226562 168.496094 189.320312 L 166.800781 202.859375 C 166.179688 207.761719 163.164062 211.855469 159.03125 213.988281 C 157.242188 222.859375 152.953125 231.386719 146.890625 238.078125 L 147.871094 241.984375 L 171.199219 247.820312 C 190.097656 252.550781 203.292969 269.464844 203.292969 288.980469 C 203.292969 293.308594 199.8125 296.808594 195.523438 296.808594 L 40.101562 296.808594 C 35.8125 296.808594 32.332031 293.324219 32.332031 289.027344 C 32.332031 269.511719 45.527344 252.582031 64.425781 247.851562 Z M 64.425781 247.851562 "/>
</g>
</g>
</svg>
