<?xml version="1.0" encoding="UTF-8"?>
<svg xmlns="http://www.w3.org/2000/svg" xmlns:xlink="http://www.w3.org/1999/xlink" width="375pt" height="374.999991pt" viewBox="0 0 375 374.999991" version="1.2">
<defs>
<clipPath id="clip1">
  <path d="M 22.710938 18.085938 L 357.210938 18.085938 L 357.210938 352.585938 L 22.710938 352.585938 Z M 22.710938 18.085938 "/>
</clipPath>
</defs>
<g id="surface1">
<g clip-path="url(#clip1)" clip-rule="nonzero">
<path style=" stroke:none;fill-rule:nonzero;fill:rgb(0%,0%,0%);fill-opacity:1;" d="M 183.136719 311.042969 L 57.585938 311.042969 C 46.046875 311.042969 36.660156 301.652344 36.660156 290.117188 L 36.660156 87.839844 L 315.664062 87.839844 L 315.664062 185.488281 C 315.664062 189.339844 318.789062 192.464844 322.636719 192.464844 C 326.488281 192.464844 329.613281 189.339844 329.613281 185.488281 L 329.613281 52.964844 C 329.613281 33.726562 313.960938 18.085938 294.738281 18.085938 L 57.585938 18.085938 C 38.363281 18.085938 22.710938 33.726562 22.710938 52.964844 L 22.710938 290.117188 C 22.710938 309.355469 38.363281 324.992188 57.585938 324.992188 L 183.136719 324.992188 C 186.988281 324.992188 190.113281 321.867188 190.113281 318.015625 C 190.113281 314.167969 186.988281 311.042969 183.136719 311.042969 Z M 113.386719 45.988281 C 117.234375 45.988281 120.359375 49.113281 120.359375 52.964844 C 120.359375 56.8125 117.234375 59.9375 113.386719 59.9375 C 109.535156 59.9375 106.410156 56.8125 106.410156 52.964844 C 106.410156 49.113281 109.535156 45.988281 113.386719 45.988281 Z M 85.484375 45.988281 C 89.335938 45.988281 92.460938 49.113281 92.460938 52.964844 C 92.460938 56.8125 89.335938 59.9375 85.484375 59.9375 C 81.636719 59.9375 78.511719 56.8125 78.511719 52.964844 C 78.511719 49.113281 81.636719 45.988281 85.484375 45.988281 Z M 57.585938 45.988281 C 61.433594 45.988281 64.558594 49.113281 64.558594 52.964844 C 64.558594 56.8125 61.433594 59.9375 57.585938 59.9375 C 53.734375 59.9375 50.609375 56.8125 50.609375 52.964844 C 50.609375 49.113281 53.734375 45.988281 57.585938 45.988281 Z M 280.789062 199.441406 C 238.492188 199.441406 204.0625 233.871094 204.0625 276.167969 C 204.0625 318.464844 238.492188 352.894531 280.789062 352.894531 C 323.085938 352.894531 357.515625 318.464844 357.515625 276.167969 C 357.515625 233.871094 323.085938 199.441406 280.789062 199.441406 Z M 313.625 308.992188 C 312.257812 310.359375 310.472656 311.042969 308.6875 311.042969 C 306.902344 311.042969 305.117188 310.359375 303.75 309.003906 L 280.789062 286.042969 L 257.824219 309.003906 C 256.457031 310.359375 254.671875 311.042969 252.886719 311.042969 C 251.101562 311.042969 249.316406 310.359375 247.949219 309.003906 C 245.230469 306.285156 245.230469 301.863281 247.949219 299.140625 L 270.910156 276.179688 L 247.949219 253.21875 C 245.230469 250.5 245.230469 246.074219 247.949219 243.355469 C 250.667969 240.636719 255.089844 240.636719 257.8125 243.355469 L 280.773438 266.316406 L 303.734375 243.355469 C 306.457031 240.636719 310.878906 240.636719 313.597656 243.355469 C 316.320312 246.074219 316.320312 250.496094 313.597656 253.21875 L 290.636719 276.179688 L 313.625 299.128906 C 316.347656 301.847656 316.347656 306.269531 313.625 308.992188 Z M 313.625 308.992188 "/>
</g>
</g>
</svg>
