<?xml version="1.0" encoding="UTF-8"?>
<svg xmlns="http://www.w3.org/2000/svg" xmlns:xlink="http://www.w3.org/1999/xlink" width="375pt" height="374.999991pt" viewBox="0 0 375 374.999991" version="1.2">
<defs>
<clipPath id="clip1">
  <path d="M 211 212 L 354.816406 212 L 354.816406 355.628906 L 211 355.628906 Z M 211 212 "/>
</clipPath>
<clipPath id="clip2">
  <path d="M 19.566406 133 L 308 133 L 308 213 L 19.566406 213 Z M 19.566406 133 "/>
</clipPath>
<clipPath id="clip3">
  <path d="M 19.566406 20.378906 L 308 20.378906 L 308 141 L 19.566406 141 Z M 19.566406 20.378906 "/>
</clipPath>
<clipPath id="clip4">
  <path d="M 19.566406 277 L 188 277 L 188 355.628906 L 19.566406 355.628906 Z M 19.566406 277 "/>
</clipPath>
<clipPath id="clip5">
  <path d="M 19.566406 205 L 188 205 L 188 284 L 19.566406 284 Z M 19.566406 205 "/>
</clipPath>
</defs>
<g id="surface1">
<g clip-path="url(#clip1)" clip-rule="nonzero">
<path style=" stroke:none;fill-rule:nonzero;fill:rgb(0%,0%,0%);fill-opacity:1;" d="M 307.09375 259.988281 L 307.09375 212.066406 L 259.171875 212.066406 L 259.171875 259.988281 L 211.25 259.988281 L 211.25 307.910156 L 259.171875 307.910156 L 259.171875 355.828125 L 307.09375 355.828125 L 307.09375 307.910156 L 355.015625 307.910156 L 355.015625 259.988281 Z M 307.09375 259.988281 "/>
</g>
<g clip-path="url(#clip2)" clip-rule="nonzero">
<path style=" stroke:none;fill-rule:nonzero;fill:rgb(0%,0%,0%);fill-opacity:1;" d="M 163.328125 212.066406 C 242.734375 212.066406 307.09375 190.621094 307.09375 164.144531 L 307.09375 140.183594 C 307.09375 137.835938 306.421875 135.535156 305.414062 133.257812 C 274.171875 154.296875 218.65625 164.144531 163.328125 164.144531 C 108.003906 164.144531 52.488281 154.296875 21.242188 133.257812 C 20.234375 135.535156 19.566406 137.835938 19.566406 140.183594 L 19.566406 164.144531 C 19.566406 190.621094 83.921875 212.066406 163.328125 212.066406 Z M 163.328125 212.066406 "/>
</g>
<g clip-path="url(#clip3)" clip-rule="nonzero">
<path style=" stroke:none;fill-rule:nonzero;fill:rgb(0%,0%,0%);fill-opacity:1;" d="M 163.328125 140.183594 C 242.734375 140.183594 307.09375 118.738281 307.09375 92.261719 L 307.09375 68.300781 C 307.09375 41.824219 242.734375 20.378906 163.328125 20.378906 C 83.921875 20.378906 19.566406 41.824219 19.566406 68.300781 L 19.566406 92.261719 C 19.566406 118.738281 83.921875 140.183594 163.328125 140.183594 Z M 163.328125 140.183594 "/>
</g>
<g clip-path="url(#clip4)" clip-rule="nonzero">
<path style=" stroke:none;fill-rule:nonzero;fill:rgb(0%,0%,0%);fill-opacity:1;" d="M 21.242188 277.023438 C 20.234375 279.300781 19.566406 281.601562 19.566406 283.949219 L 19.566406 307.910156 C 19.566406 334.386719 83.921875 355.828125 163.328125 355.828125 C 171.5 355.828125 179.480469 355.542969 187.289062 355.109375 L 187.289062 307.214844 C 179.335938 307.644531 171.355469 307.910156 163.328125 307.910156 C 108.003906 307.910156 52.488281 298.0625 21.242188 277.023438 Z M 21.242188 277.023438 "/>
</g>
<g clip-path="url(#clip5)" clip-rule="nonzero">
<path style=" stroke:none;fill-rule:nonzero;fill:rgb(0%,0%,0%);fill-opacity:1;" d="M 21.242188 205.140625 C 20.234375 207.417969 19.566406 209.71875 19.566406 212.066406 L 19.566406 236.027344 C 19.566406 262.503906 83.921875 283.949219 163.328125 283.949219 C 171.5 283.949219 179.480469 283.660156 187.289062 283.230469 L 187.289062 235.332031 C 179.335938 235.761719 171.355469 236.027344 163.328125 236.027344 C 108.003906 236.027344 52.488281 226.179688 21.242188 205.140625 Z M 21.242188 205.140625 "/>
</g>
</g>
</svg>
