<?xml version="1.0" encoding="UTF-8"?>
<svg xmlns="http://www.w3.org/2000/svg" xmlns:xlink="http://www.w3.org/1999/xlink" width="375pt" height="374.999991pt" viewBox="0 0 375 374.999991" version="1.2">
<defs>
<clipPath id="clip1">
  <path d="M 81 26.640625 L 250 26.640625 L 250 194 L 81 194 Z M 81 26.640625 "/>
</clipPath>
</defs>
<g id="surface1">
<g clip-path="url(#clip1)" clip-rule="nonzero">
<path style=" stroke:none;fill-rule:nonzero;fill:rgb(0%,0%,0%);fill-opacity:1;" d="M 249.035156 109.789062 C 249.035156 111.15625 249.003906 112.527344 248.933594 113.894531 C 248.867188 115.261719 248.765625 116.628906 248.632812 117.992188 C 248.5 119.355469 248.332031 120.710938 248.128906 122.066406 C 247.929688 123.421875 247.695312 124.769531 247.429688 126.113281 C 247.160156 127.457031 246.859375 128.792969 246.527344 130.121094 C 246.195312 131.449219 245.832031 132.769531 245.433594 134.082031 C 245.035156 135.390625 244.605469 136.691406 244.144531 137.980469 C 243.683594 139.269531 243.191406 140.546875 242.667969 141.8125 C 242.144531 143.078125 241.589844 144.328125 241.003906 145.566406 C 240.417969 146.804688 239.800781 148.027344 239.15625 149.238281 C 238.511719 150.445312 237.835938 151.636719 237.132812 152.8125 C 236.429688 153.984375 235.695312 155.140625 234.933594 156.28125 C 234.175781 157.421875 233.386719 158.539062 232.570312 159.640625 C 231.753906 160.738281 230.914062 161.820312 230.042969 162.878906 C 229.175781 163.9375 228.28125 164.972656 227.363281 165.988281 C 226.441406 167.003906 225.5 167.996094 224.53125 168.960938 C 223.5625 169.929688 222.570312 170.875 221.554688 171.796875 C 220.542969 172.714844 219.503906 173.609375 218.445312 174.476562 C 217.386719 175.347656 216.308594 176.1875 215.210938 177.003906 C 214.109375 177.820312 212.988281 178.609375 211.851562 179.371094 C 210.714844 180.132812 209.558594 180.863281 208.382812 181.566406 C 207.207031 182.273438 206.015625 182.945312 204.808594 183.59375 C 203.601562 184.238281 202.378906 184.851562 201.140625 185.4375 C 199.902344 186.023438 198.652344 186.578125 197.386719 187.101562 C 196.121094 187.628906 194.84375 188.121094 193.554688 188.582031 C 192.265625 189.042969 190.964844 189.472656 189.65625 189.871094 C 188.34375 190.269531 187.027344 190.632812 185.699219 190.964844 C 184.371094 191.296875 183.035156 191.597656 181.691406 191.867188 C 180.347656 192.132812 179 192.367188 177.644531 192.566406 C 176.289062 192.769531 174.933594 192.9375 173.570312 193.070312 C 172.207031 193.203125 170.839844 193.304688 169.472656 193.371094 C 168.105469 193.441406 166.738281 193.472656 165.367188 193.472656 C 164 193.472656 162.632812 193.441406 161.261719 193.371094 C 159.894531 193.304688 158.53125 193.203125 157.167969 193.070312 C 155.804688 192.9375 154.445312 192.769531 153.09375 192.566406 C 151.738281 192.367188 150.390625 192.132812 149.046875 191.867188 C 147.703125 191.597656 146.367188 191.296875 145.039062 190.964844 C 143.710938 190.632812 142.390625 190.269531 141.082031 189.871094 C 139.769531 189.472656 138.472656 189.042969 137.183594 188.582031 C 135.894531 188.121094 134.617188 187.628906 133.351562 187.101562 C 132.085938 186.578125 130.832031 186.023438 129.597656 185.4375 C 128.359375 184.851562 127.136719 184.238281 125.929688 183.59375 C 124.71875 182.945312 123.53125 182.273438 122.355469 181.566406 C 121.179688 180.863281 120.023438 180.132812 118.886719 179.371094 C 117.746094 178.609375 116.628906 177.820312 115.527344 177.003906 C 114.429688 176.1875 113.347656 175.347656 112.289062 174.476562 C 111.230469 173.609375 110.195312 172.714844 109.179688 171.796875 C 108.167969 170.875 107.175781 169.929688 106.207031 168.960938 C 105.238281 167.996094 104.292969 167.003906 103.375 165.988281 C 102.457031 164.972656 101.5625 163.9375 100.691406 162.878906 C 99.824219 161.820312 98.980469 160.738281 98.167969 159.640625 C 97.351562 158.539062 96.5625 157.421875 95.800781 156.28125 C 95.039062 155.140625 94.308594 153.984375 93.605469 152.8125 C 92.902344 151.636719 92.226562 150.445312 91.582031 149.238281 C 90.933594 148.027344 90.320312 146.804688 89.734375 145.566406 C 89.148438 144.328125 88.59375 143.078125 88.070312 141.8125 C 87.546875 140.546875 87.054688 139.269531 86.59375 137.980469 C 86.128906 136.691406 85.703125 135.390625 85.304688 134.082031 C 84.90625 132.769531 84.542969 131.449219 84.207031 130.121094 C 83.875 128.792969 83.574219 127.457031 83.308594 126.113281 C 83.042969 124.769531 82.808594 123.421875 82.605469 122.066406 C 82.40625 120.710938 82.238281 119.355469 82.105469 117.992188 C 81.96875 116.628906 81.867188 115.261719 81.800781 113.894531 C 81.734375 112.527344 81.699219 111.15625 81.699219 109.789062 C 81.699219 108.417969 81.734375 107.050781 81.800781 105.683594 C 81.867188 104.3125 81.96875 102.949219 82.105469 101.585938 C 82.238281 100.222656 82.40625 98.863281 82.605469 97.507812 C 82.808594 96.152344 83.042969 94.804688 83.308594 93.460938 C 83.574219 92.117188 83.875 90.78125 84.207031 89.453125 C 84.542969 88.125 84.90625 86.804688 85.304688 85.496094 C 85.703125 84.183594 86.128906 82.882812 86.59375 81.59375 C 87.054688 80.304688 87.546875 79.027344 88.070312 77.761719 C 88.59375 76.496094 89.148438 75.246094 89.734375 74.007812 C 90.320312 72.769531 90.933594 71.546875 91.582031 70.339844 C 92.226562 69.128906 92.902344 67.941406 93.605469 66.765625 C 94.308594 65.589844 95.039062 64.433594 95.800781 63.292969 C 96.5625 62.15625 97.351562 61.035156 98.167969 59.9375 C 98.980469 58.835938 99.824219 57.757812 100.691406 56.699219 C 101.5625 55.640625 102.457031 54.601562 103.375 53.589844 C 104.292969 52.574219 105.238281 51.582031 106.207031 50.613281 C 107.175781 49.644531 108.167969 48.699219 109.179688 47.78125 C 110.195312 46.859375 111.230469 45.96875 112.289062 45.097656 C 113.347656 44.230469 114.429688 43.386719 115.527344 42.570312 C 116.628906 41.753906 117.746094 40.964844 118.886719 40.207031 C 120.023438 39.445312 121.179688 38.710938 122.355469 38.007812 C 123.53125 37.304688 124.71875 36.628906 125.929688 35.984375 C 127.136719 35.339844 128.359375 34.722656 129.597656 34.136719 C 130.832031 33.550781 132.085938 32.996094 133.351562 32.472656 C 134.617188 31.949219 135.894531 31.457031 137.183594 30.992188 C 138.472656 30.53125 139.769531 30.101562 141.082031 29.707031 C 142.390625 29.308594 143.710938 28.941406 145.039062 28.609375 C 146.367188 28.277344 147.703125 27.976562 149.046875 27.710938 C 150.390625 27.441406 151.738281 27.207031 153.09375 27.007812 C 154.445312 26.808594 155.804688 26.640625 157.167969 26.503906 C 158.53125 26.371094 159.894531 26.269531 161.261719 26.203125 C 162.632812 26.136719 164 26.101562 165.367188 26.101562 C 166.738281 26.101562 168.105469 26.136719 169.472656 26.203125 C 170.839844 26.269531 172.207031 26.371094 173.570312 26.503906 C 174.933594 26.640625 176.289062 26.808594 177.644531 27.007812 C 179 27.207031 180.347656 27.441406 181.691406 27.710938 C 183.035156 27.976562 184.371094 28.277344 185.699219 28.609375 C 187.027344 28.941406 188.34375 29.308594 189.65625 29.707031 C 190.964844 30.101562 192.265625 30.53125 193.554688 30.992188 C 194.84375 31.457031 196.121094 31.949219 197.386719 32.472656 C 198.652344 32.996094 199.902344 33.550781 201.140625 34.136719 C 202.378906 34.722656 203.601562 35.339844 204.808594 35.984375 C 206.015625 36.628906 207.207031 37.304688 208.382812 38.007812 C 209.558594 38.710938 210.714844 39.445312 211.851562 40.207031 C 212.988281 40.964844 214.109375 41.753906 215.210938 42.570312 C 216.308594 43.386719 217.386719 44.230469 218.445312 45.097656 C 219.503906 45.964844 220.542969 46.859375 221.554688 47.78125 C 222.570312 48.699219 223.5625 49.644531 224.53125 50.613281 C 225.5 51.582031 226.441406 52.574219 227.363281 53.589844 C 228.28125 54.601562 229.175781 55.640625 230.042969 56.699219 C 230.914062 57.757812 231.753906 58.835938 232.570312 59.9375 C 233.386719 61.035156 234.175781 62.15625 234.933594 63.292969 C 235.695312 64.433594 236.429688 65.589844 237.132812 66.765625 C 237.835938 67.941406 238.511719 69.128906 239.15625 70.339844 C 239.800781 71.546875 240.417969 72.769531 241.003906 74.007812 C 241.589844 75.246094 242.144531 76.496094 242.667969 77.761719 C 243.191406 79.027344 243.683594 80.304688 244.144531 81.59375 C 244.605469 82.882812 245.035156 84.183594 245.433594 85.496094 C 245.832031 86.804688 246.195312 88.125 246.527344 89.453125 C 246.859375 90.78125 247.160156 92.117188 247.429688 93.460938 C 247.695312 94.804688 247.929688 96.152344 248.128906 97.507812 C 248.332031 98.863281 248.5 100.222656 248.632812 101.585938 C 248.765625 102.949219 248.867188 104.3125 248.933594 105.683594 C 249.003906 107.050781 249.035156 108.417969 249.035156 109.789062 Z M 249.035156 109.789062 "/>
</g>
<path style=" stroke:none;fill-rule:nonzero;fill:rgb(0%,0%,0%);fill-opacity:1;" d="M 195.058594 282.558594 C 195.054688 287.621094 195.542969 292.632812 196.519531 297.601562 C 197.496094 302.566406 198.941406 307.390625 200.859375 312.074219 C 202.773438 316.761719 205.125 321.214844 207.90625 325.441406 C 210.691406 329.667969 213.855469 333.585938 217.40625 337.195312 C 200.480469 342.113281 183.207031 344.5625 165.585938 344.539062 C 160.34375 344.5 155.109375 344.253906 149.890625 343.800781 C 144.667969 343.347656 139.472656 342.691406 134.300781 341.828125 C 129.132812 340.960938 124.003906 339.898438 118.917969 338.628906 C 113.832031 337.359375 108.804688 335.890625 103.835938 334.226562 C 98.863281 332.558594 93.96875 330.699219 89.144531 328.648438 C 84.320312 326.59375 79.585938 324.351562 74.941406 321.925781 C 70.296875 319.5 65.753906 316.890625 61.3125 314.105469 C 56.871094 311.320312 52.546875 308.363281 48.34375 305.234375 C 46.8125 304.09375 45.4375 302.792969 44.214844 301.328125 C 42.988281 299.867188 41.949219 298.28125 41.097656 296.574219 C 40.246094 294.867188 39.601562 293.085938 39.164062 291.230469 C 38.730469 289.371094 38.511719 287.488281 38.519531 285.582031 C 38.5625 283.007812 38.691406 280.4375 38.914062 277.875 C 39.136719 275.308594 39.445312 272.753906 39.84375 270.210938 C 40.242188 267.667969 40.730469 265.140625 41.304688 262.632812 C 41.878906 260.121094 42.539062 257.636719 43.285156 255.171875 C 44.03125 252.710938 44.863281 250.273438 45.777344 247.867188 C 46.695312 245.460938 47.695312 243.089844 48.773438 240.753906 C 49.855469 238.417969 51.015625 236.121094 52.253906 233.867188 C 53.496094 231.609375 54.8125 229.402344 56.207031 227.238281 C 57.597656 225.070312 59.066406 222.957031 60.605469 220.894531 C 62.148438 218.832031 63.757812 216.828125 65.4375 214.878906 C 67.117188 212.925781 68.863281 211.035156 70.671875 209.207031 C 72.484375 207.378906 74.355469 205.613281 76.289062 203.914062 C 78.222656 202.214844 80.214844 200.585938 82.261719 199.023438 C 84.308594 197.464844 86.40625 195.976562 88.554688 194.558594 C 90.707031 193.144531 92.902344 191.804688 95.144531 190.542969 C 97.386719 189.28125 99.671875 188.097656 101.996094 186.996094 C 104.207031 188.808594 106.492188 190.523438 108.847656 192.140625 C 111.207031 193.757812 113.628906 195.273438 116.117188 196.683594 C 118.605469 198.09375 121.148438 199.390625 123.746094 200.582031 C 126.347656 201.773438 128.992188 202.851562 131.683594 203.816406 C 134.375 204.78125 137.101562 205.628906 139.867188 206.359375 C 142.628906 207.089844 145.421875 207.699219 148.238281 208.1875 C 151.054688 208.679688 153.886719 209.046875 156.734375 209.296875 C 159.582031 209.542969 162.4375 209.667969 165.296875 209.671875 C 168.15625 209.671875 171.007812 209.554688 173.855469 209.3125 C 176.707031 209.066406 179.539062 208.703125 182.355469 208.21875 C 185.171875 207.734375 187.964844 207.128906 190.730469 206.402344 C 193.496094 205.675781 196.226562 204.832031 198.917969 203.875 C 201.609375 202.914062 204.257812 201.839844 206.859375 200.65625 C 209.460938 199.46875 212.007812 198.171875 214.496094 196.765625 C 216.984375 195.359375 219.410156 193.851562 221.769531 192.238281 C 224.132812 190.625 226.417969 188.914062 228.632812 187.101562 C 237.5625 191.039062 245.734375 196.183594 253.136719 202.542969 C 254.375 203.523438 255.167969 204.785156 255.511719 206.324219 C 253.378906 206.8125 251.269531 207.394531 249.183594 208.0625 C 247.097656 208.730469 245.042969 209.484375 243.019531 210.328125 C 241 211.171875 239.015625 212.09375 237.074219 213.105469 C 235.128906 214.113281 233.230469 215.203125 231.378906 216.371094 C 229.527344 217.542969 227.726562 218.785156 225.980469 220.109375 C 224.230469 221.429688 222.542969 222.820312 220.914062 224.285156 C 219.285156 225.75 217.71875 227.277344 216.21875 228.875 C 214.71875 230.46875 213.285156 232.125 211.925781 233.84375 C 210.566406 235.558594 209.277344 237.328125 208.066406 239.152344 C 206.855469 240.976562 205.722656 242.851562 204.667969 244.769531 C 203.613281 246.691406 202.644531 248.652344 201.753906 250.65625 C 200.867188 252.65625 200.0625 254.695312 199.347656 256.765625 C 198.628906 258.835938 198 260.929688 197.460938 263.054688 C 196.921875 265.175781 196.472656 267.320312 196.113281 269.480469 C 195.753906 271.640625 195.484375 273.8125 195.308594 275.996094 C 195.132812 278.179688 195.046875 280.367188 195.058594 282.558594 Z M 195.058594 282.558594 "/>
<path style=" stroke:none;fill-rule:nonzero;fill:rgb(0%,0%,0%);fill-opacity:1;" d="M 273.328125 220.46875 C 268.578125 220.433594 263.894531 220.984375 259.285156 222.113281 C 258.015625 222.410156 256.757812 222.75 255.511719 223.128906 C 254.265625 223.503906 253.03125 223.921875 251.8125 224.375 C 250.589844 224.832031 249.386719 225.324219 248.195312 225.855469 C 247.007812 226.386719 245.835938 226.957031 244.683594 227.5625 C 243.527344 228.167969 242.394531 228.808594 241.28125 229.484375 C 240.167969 230.164062 239.078125 230.875 238.011719 231.617188 C 236.941406 232.363281 235.898438 233.144531 234.878906 233.953125 C 233.859375 234.765625 232.867188 235.609375 231.902344 236.484375 C 230.9375 237.359375 230 238.261719 229.089844 239.195312 C 228.179688 240.128906 227.300781 241.089844 226.453125 242.078125 C 225.605469 243.066406 224.789062 244.082031 224.003906 245.121094 C 223.222656 246.160156 222.46875 247.226562 221.753906 248.3125 C 221.035156 249.402344 220.355469 250.507812 219.707031 251.640625 C 219.058594 252.769531 218.449219 253.921875 217.875 255.089844 C 217.296875 256.257812 216.761719 257.445312 216.261719 258.648438 C 215.761719 259.851562 215.300781 261.070312 214.878906 262.300781 C 214.453125 263.535156 214.070312 264.777344 213.726562 266.035156 C 213.382812 267.292969 213.078125 268.558594 212.8125 269.832031 C 212.546875 271.109375 212.324219 272.390625 212.140625 273.679688 C 211.953125 274.972656 211.8125 276.265625 211.710938 277.5625 C 211.609375 278.863281 211.546875 280.164062 211.527344 281.464844 C 211.507812 282.769531 211.527344 284.070312 211.589844 285.371094 C 211.652344 286.675781 211.753906 287.972656 211.898438 289.265625 C 212.042969 290.5625 212.226562 291.851562 212.453125 293.132812 C 212.675781 294.417969 212.941406 295.691406 213.246094 296.960938 C 213.554688 298.226562 213.898438 299.480469 214.285156 300.726562 C 214.667969 301.972656 215.089844 303.203125 215.554688 304.421875 C 216.015625 305.636719 216.515625 306.839844 217.054688 308.027344 C 217.59375 309.214844 218.167969 310.382812 218.78125 311.53125 C 219.394531 312.683594 220.039062 313.8125 220.722656 314.921875 C 221.40625 316.03125 222.125 317.117188 222.875 318.179688 C 223.628906 319.246094 224.414062 320.285156 225.230469 321.296875 C 226.046875 322.3125 226.894531 323.300781 227.773438 324.261719 C 228.65625 325.222656 229.5625 326.15625 230.503906 327.058594 C 231.441406 327.960938 232.40625 328.835938 233.398438 329.679688 C 234.394531 330.519531 235.414062 331.332031 236.457031 332.109375 C 237.5 332.886719 238.570312 333.632812 239.660156 334.34375 C 240.753906 335.054688 241.867188 335.730469 243 336.371094 C 244.132812 337.011719 245.289062 337.617188 246.460938 338.183594 C 247.632812 338.75 248.820312 339.28125 250.027344 339.773438 C 251.234375 340.269531 252.453125 340.722656 253.6875 341.136719 C 254.921875 341.554688 256.167969 341.929688 257.425781 342.269531 C 258.683594 342.605469 259.953125 342.902344 261.230469 343.160156 C 262.503906 343.417969 263.789062 343.632812 265.082031 343.808594 C 266.371094 343.988281 267.664062 344.121094 268.964844 344.214844 C 270.265625 344.3125 271.566406 344.363281 272.867188 344.378906 C 274.171875 344.390625 275.472656 344.359375 276.773438 344.292969 C 278.074219 344.222656 279.371094 344.109375 280.664062 343.960938 C 281.957031 343.808594 283.246094 343.617188 284.527344 343.382812 C 285.808594 343.152344 287.082031 342.878906 288.347656 342.566406 C 289.609375 342.25 290.863281 341.898438 292.105469 341.507812 C 293.347656 341.113281 294.578125 340.683594 295.792969 340.214844 C 297.007812 339.742188 298.207031 339.238281 299.390625 338.691406 C 300.570312 338.144531 301.738281 337.5625 302.882812 336.945312 C 304.027344 336.324219 305.15625 335.671875 306.257812 334.980469 C 307.363281 334.292969 308.445312 333.566406 309.507812 332.808594 C 310.566406 332.050781 311.601562 331.261719 312.609375 330.4375 C 313.617188 329.613281 314.601562 328.757812 315.558594 327.875 C 316.511719 326.988281 317.4375 326.074219 318.335938 325.128906 C 319.234375 324.1875 320.101562 323.214844 320.9375 322.214844 C 321.773438 321.21875 322.578125 320.195312 323.351562 319.144531 C 324.125 318.09375 324.863281 317.023438 325.566406 315.925781 C 326.269531 314.828125 326.941406 313.710938 327.574219 312.574219 C 328.207031 311.4375 328.804688 310.28125 329.367188 309.105469 C 329.925781 307.925781 330.449219 306.734375 330.9375 305.527344 C 331.421875 304.316406 331.867188 303.09375 332.277344 301.855469 C 332.6875 300.621094 333.054688 299.371094 333.382812 298.109375 C 333.714844 296.851562 334.003906 295.582031 334.253906 294.300781 C 334.503906 293.023438 334.714844 291.738281 334.882812 290.445312 C 335.050781 289.15625 335.179688 287.859375 335.265625 286.558594 C 335.351562 285.257812 335.398438 283.957031 335.402344 282.652344 C 335.40625 281.351562 335.371094 280.050781 335.292969 278.75 C 335.214844 277.449219 335.097656 276.152344 334.9375 274.859375 C 334.78125 273.566406 334.582031 272.277344 334.339844 270.996094 C 334.101562 269.71875 333.820312 268.445312 333.5 267.183594 C 333.179688 265.921875 332.820312 264.667969 332.417969 263.429688 C 332.019531 262.1875 331.582031 260.960938 331.105469 259.75 C 330.628906 258.535156 330.113281 257.339844 329.5625 256.160156 C 329.011719 254.980469 328.421875 253.820312 327.796875 252.675781 C 327.171875 251.535156 326.507812 250.410156 325.8125 249.308594 C 325.117188 248.210938 324.386719 247.132812 323.621094 246.074219 C 322.859375 245.019531 322.0625 243.992188 321.230469 242.984375 C 320.402344 241.980469 319.542969 241.003906 318.652344 240.054688 C 317.761719 239.101562 316.839844 238.179688 315.890625 237.289062 C 314.945312 236.394531 313.96875 235.535156 312.964844 234.703125 C 311.960938 233.871094 310.933594 233.074219 309.878906 232.308594 C 308.824219 231.542969 307.75 230.808594 306.648438 230.113281 C 305.546875 229.414062 304.425781 228.75 303.285156 228.125 C 302.144531 227.496094 300.984375 226.90625 299.804688 226.351562 C 298.625 225.796875 297.429688 225.28125 296.21875 224.800781 C 295.007812 224.324219 293.78125 223.882812 292.542969 223.480469 C 291.304688 223.082031 290.054688 222.71875 288.792969 222.394531 C 287.53125 222.074219 286.257812 221.792969 284.980469 221.550781 C 283.699219 221.308594 282.414062 221.105469 281.121094 220.945312 C 279.828125 220.785156 278.53125 220.664062 277.230469 220.582031 C 275.929688 220.503906 274.628906 220.464844 273.328125 220.46875 Z M 305.714844 290.65625 L 281.421875 290.65625 L 281.421875 314.953125 C 281.421875 315.484375 281.371094 316.011719 281.269531 316.53125 C 281.164062 317.054688 281.011719 317.5625 280.808594 318.050781 C 280.605469 318.542969 280.355469 319.011719 280.058594 319.453125 C 279.761719 319.894531 279.429688 320.304688 279.050781 320.679688 C 278.675781 321.054688 278.265625 321.390625 277.824219 321.6875 C 277.382812 321.980469 276.917969 322.230469 276.425781 322.433594 C 275.933594 322.636719 275.425781 322.792969 274.90625 322.894531 C 274.386719 323 273.859375 323.050781 273.328125 323.050781 C 272.796875 323.050781 272.269531 323 271.746094 322.894531 C 271.226562 322.792969 270.71875 322.636719 270.226562 322.433594 C 269.738281 322.230469 269.269531 321.980469 268.828125 321.6875 C 268.386719 321.390625 267.976562 321.054688 267.601562 320.679688 C 267.226562 320.304688 266.890625 319.894531 266.59375 319.453125 C 266.300781 319.011719 266.050781 318.542969 265.847656 318.050781 C 265.640625 317.5625 265.488281 317.054688 265.386719 316.53125 C 265.28125 316.011719 265.230469 315.484375 265.230469 314.953125 L 265.230469 290.65625 L 240.9375 290.65625 C 240.40625 290.65625 239.882812 290.605469 239.359375 290.5 C 238.839844 290.398438 238.332031 290.242188 237.839844 290.039062 C 237.347656 289.835938 236.882812 289.585938 236.441406 289.292969 C 236 288.996094 235.589844 288.660156 235.214844 288.285156 C 234.839844 287.910156 234.503906 287.5 234.207031 287.058594 C 233.910156 286.617188 233.664062 286.148438 233.457031 285.65625 C 233.253906 285.167969 233.101562 284.660156 232.996094 284.136719 C 232.894531 283.617188 232.84375 283.089844 232.84375 282.558594 C 232.84375 282.027344 232.894531 281.5 232.996094 280.976562 C 233.101562 280.457031 233.253906 279.949219 233.457031 279.460938 C 233.664062 278.96875 233.910156 278.5 234.207031 278.058594 C 234.503906 277.617188 234.839844 277.207031 235.214844 276.832031 C 235.589844 276.457031 236 276.121094 236.441406 275.824219 C 236.882812 275.527344 237.347656 275.28125 237.839844 275.078125 C 238.332031 274.871094 238.839844 274.71875 239.359375 274.617188 C 239.882812 274.511719 240.40625 274.460938 240.9375 274.460938 L 265.230469 274.460938 L 265.230469 250.164062 C 265.230469 249.632812 265.28125 249.105469 265.386719 248.585938 C 265.488281 248.0625 265.640625 247.554688 265.847656 247.066406 C 266.050781 246.574219 266.300781 246.105469 266.59375 245.664062 C 266.890625 245.222656 267.226562 244.8125 267.601562 244.4375 C 267.976562 244.0625 268.386719 243.726562 268.828125 243.429688 C 269.269531 243.136719 269.738281 242.886719 270.226562 242.683594 C 270.71875 242.476562 271.226562 242.324219 271.746094 242.222656 C 272.269531 242.117188 272.796875 242.066406 273.328125 242.066406 C 273.859375 242.066406 274.386719 242.117188 274.90625 242.222656 C 275.425781 242.324219 275.933594 242.476562 276.425781 242.683594 C 276.917969 242.886719 277.382812 243.136719 277.824219 243.429688 C 278.265625 243.726562 278.675781 244.0625 279.050781 244.4375 C 279.429688 244.8125 279.761719 245.222656 280.058594 245.664062 C 280.355469 246.105469 280.605469 246.574219 280.808594 247.066406 C 281.011719 247.554688 281.164062 248.0625 281.269531 248.585938 C 281.371094 249.105469 281.421875 249.632812 281.421875 250.164062 L 281.421875 274.460938 L 305.714844 274.460938 C 306.246094 274.460938 306.773438 274.511719 307.292969 274.617188 C 307.816406 274.71875 308.320312 274.871094 308.8125 275.078125 C 309.304688 275.28125 309.769531 275.527344 310.210938 275.824219 C 310.65625 276.121094 311.0625 276.457031 311.4375 276.832031 C 311.816406 277.207031 312.152344 277.617188 312.445312 278.058594 C 312.742188 278.5 312.992188 278.96875 313.195312 279.460938 C 313.398438 279.949219 313.550781 280.457031 313.65625 280.976562 C 313.757812 281.5 313.8125 282.027344 313.8125 282.558594 C 313.8125 283.089844 313.757812 283.617188 313.65625 284.136719 C 313.550781 284.660156 313.398438 285.167969 313.195312 285.65625 C 312.992188 286.148438 312.742188 286.617188 312.445312 287.058594 C 312.152344 287.5 311.816406 287.910156 311.4375 288.285156 C 311.0625 288.660156 310.65625 288.996094 310.210938 289.292969 C 309.769531 289.585938 309.304688 289.835938 308.8125 290.039062 C 308.320312 290.242188 307.816406 290.398438 307.292969 290.5 C 306.773438 290.605469 306.246094 290.65625 305.714844 290.65625 Z M 305.714844 290.65625 "/>
</g>
</svg>
