<svg xmlns="http://www.w3.org/2000/svg" xmlns:xlink="http://www.w3.org/1999/xlink" width="500" zoomAndPan="magnify" viewBox="0 0 375 374.999991" height="500" preserveAspectRatio="xMidYMid meet" version="1.0"><defs><clipPath id="393e47fde0"><path d="M 39 28.566406 L 336 28.566406 L 336 132 L 39 132 Z M 39 28.566406 " clip-rule="nonzero"/></clipPath><clipPath id="19f408b133"><path d="M 19.316406 324 L 355.316406 324 L 355.316406 346.566406 L 19.316406 346.566406 Z M 19.316406 324 " clip-rule="nonzero"/></clipPath></defs><g clip-path="url(#393e47fde0)"><path fill="#020201" d="M 335.464844 93.835938 L 335.449219 93.835938 L 261.382812 61.199219 L 187.316406 28.566406 L 113.25 61.199219 L 39.179688 93.835938 L 39.167969 93.835938 L 39.167969 131.78125 L 335.464844 131.78125 Z M 335.464844 93.835938 " fill-opacity="1" fill-rule="nonzero"/></g><path fill="#020201" d="M 68.339844 270.671875 C 63.945312 270.671875 60.382812 274.238281 60.382812 278.640625 C 60.382812 283.039062 63.945312 286.609375 68.339844 286.609375 L 115.324219 286.609375 C 119.71875 286.609375 123.28125 283.039062 123.28125 278.640625 C 123.28125 274.238281 119.71875 270.671875 115.324219 270.671875 L 112.671875 270.671875 L 112.671875 156.828125 L 115.324219 156.828125 C 119.71875 156.828125 123.28125 153.261719 123.28125 148.859375 C 123.28125 144.457031 119.71875 140.890625 115.324219 140.890625 L 68.339844 140.890625 C 63.945312 140.890625 60.382812 144.457031 60.382812 148.859375 C 60.382812 153.261719 63.945312 156.828125 68.339844 156.828125 L 70.992188 156.828125 L 70.992188 270.671875 Z M 68.339844 270.671875 " fill-opacity="1" fill-rule="nonzero"/><path fill="#020201" d="M 163.824219 270.671875 C 159.429688 270.671875 155.867188 274.238281 155.867188 278.640625 C 155.867188 283.039062 159.429688 286.609375 163.824219 286.609375 L 210.808594 286.609375 C 215.203125 286.609375 218.765625 283.039062 218.765625 278.640625 C 218.765625 274.238281 215.203125 270.671875 210.808594 270.671875 L 208.15625 270.671875 L 208.15625 156.828125 L 210.808594 156.828125 C 215.203125 156.828125 218.765625 153.261719 218.765625 148.859375 C 218.765625 144.457031 215.203125 140.890625 210.808594 140.890625 L 163.824219 140.890625 C 159.429688 140.890625 155.867188 144.457031 155.867188 148.859375 C 155.867188 153.261719 159.429688 156.828125 163.824219 156.828125 L 166.476562 156.828125 L 166.476562 270.671875 Z M 163.824219 270.671875 " fill-opacity="1" fill-rule="nonzero"/><path fill="#020201" d="M 260.820312 270.671875 C 256.425781 270.671875 252.863281 274.238281 252.863281 278.640625 C 252.863281 283.039062 256.425781 286.609375 260.820312 286.609375 L 307.804688 286.609375 C 312.199219 286.609375 315.761719 283.039062 315.761719 278.640625 C 315.761719 274.238281 312.199219 270.671875 307.804688 270.671875 L 305.152344 270.671875 L 305.152344 156.828125 L 307.804688 156.828125 C 312.199219 156.828125 315.761719 153.261719 315.761719 148.859375 C 315.761719 144.457031 312.199219 140.890625 307.804688 140.890625 L 260.820312 140.890625 C 256.425781 140.890625 252.863281 144.457031 252.863281 148.859375 C 252.863281 153.261719 256.425781 156.828125 260.820312 156.828125 L 263.472656 156.828125 L 263.472656 270.671875 Z M 260.820312 270.671875 " fill-opacity="1" fill-rule="nonzero"/><path fill="#020201" d="M 39.175781 303.304688 L 39.175781 307.859375 C 39.175781 312.050781 42.566406 315.449219 46.753906 315.449219 L 327.878906 315.449219 C 332.0625 315.449219 335.457031 312.050781 335.457031 307.859375 L 335.457031 303.304688 C 335.457031 299.113281 332.0625 295.714844 327.878906 295.714844 L 46.753906 295.714844 C 42.566406 295.714844 39.175781 299.113281 39.175781 303.304688 Z M 39.175781 303.304688 " fill-opacity="1" fill-rule="nonzero"/><g clip-path="url(#19f408b133)"><path fill="#020201" d="M 347.589844 324.554688 L 27.042969 324.554688 C 22.855469 324.554688 19.464844 327.953125 19.464844 332.144531 L 19.464844 338.976562 C 19.464844 343.167969 22.855469 346.566406 27.042969 346.566406 L 347.589844 346.566406 C 351.773438 346.566406 355.167969 343.167969 355.167969 338.976562 L 355.167969 332.144531 C 355.167969 327.953125 351.773438 324.554688 347.589844 324.554688 Z M 347.589844 324.554688 " fill-opacity="1" fill-rule="nonzero"/></g></svg>