<?xml version="1.0" encoding="UTF-8"?>
<svg xmlns="http://www.w3.org/2000/svg" xmlns:xlink="http://www.w3.org/1999/xlink" width="375pt" height="374.999991pt" viewBox="0 0 375 374.999991" version="1.2">
<defs>
<clipPath id="clip1">
  <path d="M 45.519531 24.929688 L 328.878906 24.929688 L 328.878906 350.90625 L 45.519531 350.90625 Z M 45.519531 24.929688 "/>
</clipPath>
</defs>
<g id="surface1">
<g clip-path="url(#clip1)" clip-rule="nonzero">
<path style=" stroke:none;fill-rule:evenodd;fill:rgb(9.799194%,9.01947%,8.628845%);fill-opacity:1;" d="M 197.097656 34.839844 C 197.097656 29.371094 192.664062 24.929688 187.207031 24.929688 C 181.742188 24.929688 177.3125 29.371094 177.3125 34.839844 L 177.3125 141.949219 C 177.3125 147.425781 181.742188 151.863281 187.207031 151.863281 C 192.664062 151.863281 197.097656 147.425781 197.097656 141.949219 Z M 221.789062 71.167969 C 254.4375 79.359375 283.027344 99.027344 302.566406 126.472656 C 322.101562 153.910156 331.214844 187.261719 328.378906 220.847656 C 325.199219 258.496094 307.386719 293.03125 278.582031 317.40625 C 249.78125 341.769531 212.828125 353.582031 175.273438 350.394531 C 137.714844 347.210938 103.257812 329.355469 78.945312 300.480469 C 54.636719 271.617188 42.855469 234.574219 46.03125 196.929688 C 48.503906 167.632812 59.855469 140.03125 78.75 117.535156 C 97.621094 95.066406 123.050781 78.863281 151.425781 71.464844 C 156.667969 70.101562 162.109375 73.3125 163.464844 78.566406 C 164.824219 83.816406 161.621094 89.261719 156.386719 90.625 C 131.972656 96.992188 110.089844 110.9375 93.851562 130.269531 C 77.59375 149.628906 67.867188 173.371094 65.738281 198.578125 C 63.003906 230.980469 73.113281 262.847656 94.039062 287.699219 C 114.960938 312.546875 144.59375 327.902344 176.914062 330.640625 C 209.242188 333.382812 241.035156 323.25 265.828125 302.273438 C 290.617188 281.304688 305.9375 251.601562 308.667969 219.199219 C 311.109375 190.285156 303.296875 161.589844 286.480469 137.960938 C 269.671875 114.351562 245.078125 97.433594 216.992188 90.386719 C 214.445312 89.75 212.273438 88.121094 210.921875 85.863281 C 209.574219 83.609375 209.167969 80.925781 209.800781 78.378906 C 210.4375 75.820312 212.0625 73.640625 214.316406 72.292969 C 216.566406 70.9375 219.242188 70.53125 221.789062 71.167969 "/>
</g>
</g>
</svg>
