<?xml version="1.0" encoding="UTF-8"?>
<svg xmlns="http://www.w3.org/2000/svg" xmlns:xlink="http://www.w3.org/1999/xlink" width="375pt" height="374.999991pt" viewBox="0 0 375 374.999991" version="1.2">
<defs>
<clipPath id="clip1">
  <path d="M 26.011719 15.445312 L 359.761719 15.445312 L 359.761719 349.195312 L 26.011719 349.195312 Z M 26.011719 15.445312 "/>
</clipPath>
</defs>
<g id="surface1">
<g clip-path="url(#clip1)" clip-rule="nonzero">
<path style=" stroke:none;fill-rule:nonzero;fill:rgb(0%,0%,0%);fill-opacity:1;" d="M 36 202.910156 L 59.167969 204.878906 C 59.878906 204.945312 60.476562 205.527344 60.613281 206.25 C 61.285156 210.058594 62.117188 213.777344 63.058594 217.261719 C 63.964844 220.734375 65.066406 224.273438 66.457031 228.136719 C 66.714844 228.824219 66.476562 229.582031 65.914062 229.988281 L 46.8125 243.277344 C 42.6875 246.148438 41.175781 251.878906 43.367188 256.324219 C 46.609375 262.882812 50.257812 269.210938 54.203125 275.113281 C 56.035156 277.894531 59.367188 279.625 62.898438 279.625 C 64.421875 279.625 65.925781 279.292969 67.234375 278.675781 L 88.347656 268.789062 C 88.925781 268.503906 89.691406 268.695312 90.183594 269.292969 C 95.101562 275.101562 100.488281 280.472656 106.191406 285.261719 C 106.777344 285.757812 106.976562 286.511719 106.667969 287.164062 L 96.800781 308.238281 C 94.636719 312.851562 96.15625 318.445312 100.34375 321.257812 C 106.503906 325.351562 112.835938 329.003906 119.132812 332.09375 C 123.535156 334.308594 129.347656 332.757812 132.191406 328.660156 L 145.503906 309.574219 C 146.152344 308.617188 146.9375 308.878906 147.371094 309.03125 C 154.347656 311.574219 161.695312 313.546875 169.183594 314.890625 C 169.960938 315.035156 170.527344 315.617188 170.59375 316.308594 L 172.566406 339.503906 C 172.988281 344.480469 177.179688 348.652344 182.144531 349.015625 C 185.660156 349.238281 189.222656 349.351562 192.742188 349.351562 C 196.449219 349.351562 200.1875 349.222656 203.828125 348.976562 C 208.785156 348.675781 213 344.5 213.417969 339.46875 L 215.382812 316.308594 C 215.453125 315.59375 216.035156 314.996094 216.757812 314.859375 C 220.554688 314.1875 224.269531 313.363281 227.773438 312.414062 C 231.234375 311.511719 234.773438 310.40625 238.652344 309.015625 C 239.324219 308.753906 240.101562 309.015625 240.5 309.558594 L 253.789062 328.65625 C 256.535156 332.613281 262.527344 334.230469 266.832031 332.105469 C 273.394531 328.863281 279.726562 325.210938 285.621094 321.269531 C 289.714844 318.578125 291.3125 312.726562 289.179688 308.238281 L 279.300781 287.125 C 279.015625 286.535156 279.207031 285.78125 279.804688 285.289062 C 285.621094 280.355469 290.996094 274.972656 295.773438 269.28125 C 296.265625 268.703125 296.992188 268.484375 297.675781 268.808594 L 318.75 278.675781 C 320.136719 279.324219 321.671875 279.664062 323.203125 279.667969 C 326.660156 279.667969 329.859375 277.976562 331.769531 275.128906 C 335.726562 269.171875 339.378906 262.851562 342.609375 256.339844 C 344.867188 251.824219 343.386719 246.207031 339.175781 243.28125 L 320.085938 229.976562 C 319.5 229.570312 319.289062 228.824219 319.542969 228.101562 C 322.089844 221.101562 324.0625 213.753906 325.398438 206.292969 C 325.546875 205.503906 326.121094 204.953125 326.824219 204.886719 L 350.015625 202.914062 C 354.988281 202.492188 359.164062 198.296875 359.527344 193.332031 C 359.984375 186.082031 359.972656 178.777344 359.488281 171.648438 C 359.195312 166.777344 354.925781 162.472656 349.980469 162.054688 L 326.816406 160.085938 C 326.105469 160.019531 325.507812 159.4375 325.371094 158.714844 C 324.695312 154.90625 323.867188 151.1875 322.921875 147.703125 C 322.019531 144.230469 320.917969 140.691406 319.527344 136.828125 C 319.269531 136.140625 319.503906 135.382812 320.070312 134.976562 L 339.171875 121.6875 C 343.292969 118.816406 344.808594 113.085938 342.613281 108.640625 C 339.375 102.085938 335.726562 95.757812 331.78125 89.855469 C 329.945312 87.070312 326.617188 85.339844 323.085938 85.339844 C 321.5625 85.339844 320.054688 85.671875 318.742188 86.292969 L 297.691406 96.167969 C 297.082031 96.460938 296.296875 96.285156 295.796875 95.671875 C 290.878906 89.867188 285.492188 84.492188 279.792969 79.703125 C 279.203125 79.207031 279.007812 78.453125 279.316406 77.800781 L 289.179688 56.730469 C 291.34375 52.113281 289.828125 46.523438 285.640625 43.710938 C 279.699219 39.761719 273.375 36.113281 266.847656 32.871094 C 262.4375 30.65625 256.636719 32.207031 253.792969 36.304688 L 240.480469 55.390625 C 239.828125 56.347656 239.042969 56.089844 238.609375 55.9375 C 231.632812 53.394531 224.285156 51.421875 216.796875 50.078125 C 216.019531 49.929688 215.453125 49.347656 215.386719 48.65625 L 213.417969 25.460938 C 212.996094 20.488281 208.800781 16.3125 203.835938 15.953125 C 196.617188 15.492188 189.25 15.503906 182.15625 15.988281 C 177.195312 16.289062 172.980469 20.46875 172.5625 25.496094 L 170.597656 48.65625 C 170.527344 49.371094 169.945312 49.972656 169.222656 50.109375 C 165.425781 50.78125 161.710938 51.605469 158.210938 52.554688 C 154.75 53.457031 151.210938 54.558594 147.332031 55.949219 C 146.648438 56.199219 145.875 55.949219 145.484375 55.40625 L 132.195312 36.304688 C 129.445312 32.351562 123.453125 30.734375 119.148438 32.859375 C 112.585938 36.101562 106.253906 39.753906 100.359375 43.695312 C 96.265625 46.386719 94.671875 52.238281 96.800781 56.726562 L 106.683594 77.839844 C 106.964844 78.429688 106.773438 79.183594 106.175781 79.671875 C 100.359375 84.605469 94.984375 89.992188 90.207031 95.683594 C 89.71875 96.257812 88.988281 96.480469 88.304688 96.15625 L 67.230469 86.289062 C 62.710938 84.175781 56.96875 85.734375 54.210938 89.835938 C 50.109375 96.003906 46.457031 102.335938 43.371094 108.625 C 41.113281 113.140625 42.59375 118.757812 46.804688 121.683594 L 65.894531 134.988281 C 66.484375 135.394531 66.695312 136.140625 66.4375 136.863281 C 63.890625 143.863281 61.917969 151.210938 60.582031 158.671875 C 60.433594 159.460938 59.863281 160.015625 59.15625 160.082031 L 35.96875 162.050781 C 30.992188 162.472656 26.820312 166.667969 26.457031 171.632812 C 25.996094 178.882812 26.007812 186.1875 26.496094 193.316406 C 26.789062 198.191406 31.054688 202.496094 36 202.910156 Z M 116.890625 138.539062 C 128.621094 118.210938 147.570312 103.679688 170.238281 97.617188 C 177.714844 95.609375 185.394531 94.59375 193.0625 94.59375 C 232.726562 94.59375 267.597656 121.378906 277.855469 159.730469 C 283.9375 182.410156 280.824219 206.097656 269.089844 226.425781 C 257.355469 246.753906 238.410156 261.285156 215.742188 267.347656 C 208.265625 269.355469 200.585938 270.371094 192.925781 270.371094 C 192.925781 270.371094 192.921875 270.371094 192.917969 270.371094 C 153.25 270.367188 118.382812 243.585938 108.121094 205.234375 C 102.042969 182.554688 105.15625 158.867188 116.890625 138.539062 Z M 116.890625 138.539062 "/>
</g>
</g>
</svg>
