<?xml version="1.0" encoding="UTF-8"?>
<svg xmlns="http://www.w3.org/2000/svg" xmlns:xlink="http://www.w3.org/1999/xlink" width="375pt" height="374.999991pt" viewBox="0 0 375 374.999991" version="1.2">
<defs>
<clipPath id="clip1">
  <path d="M 85.140625 15.417969 L 293.523438 15.417969 L 293.523438 352.578125 L 85.140625 352.578125 Z M 85.140625 15.417969 "/>
</clipPath>
</defs>
<g id="surface1">
<g clip-path="url(#clip1)" clip-rule="nonzero">
<path style=" stroke:none;fill-rule:nonzero;fill:rgb(0%,0%,0%);fill-opacity:1;" d="M 285.152344 69.527344 L 268.070312 69.527344 C 265.988281 81.183594 255.988281 90.339844 243.492188 90.339844 L 135.171875 90.339844 C 122.671875 90.339844 112.671875 81.183594 110.589844 69.527344 L 93.507812 69.527344 C 88.925781 69.527344 85.175781 73.273438 85.175781 77.851562 L 85.175781 344.25 C 85.175781 348.832031 88.925781 352.578125 93.507812 352.578125 L 285.152344 352.578125 C 289.734375 352.578125 293.484375 348.832031 293.484375 344.25 L 293.484375 77.851562 C 293.484375 73.273438 289.734375 69.527344 285.152344 69.527344 Z M 260.15625 294.300781 L 118.507812 294.300781 C 113.921875 294.300781 110.171875 290.554688 110.171875 285.976562 C 110.171875 281.398438 113.921875 277.652344 118.507812 277.652344 L 260.15625 277.652344 C 264.738281 277.652344 268.488281 281.398438 268.488281 285.976562 C 268.488281 290.554688 264.738281 294.300781 260.15625 294.300781 Z M 260.15625 252.675781 L 118.507812 252.675781 C 113.921875 252.675781 110.171875 248.929688 110.171875 244.351562 C 110.171875 239.773438 113.921875 236.027344 118.507812 236.027344 L 260.15625 236.027344 C 264.738281 236.027344 268.488281 239.773438 268.488281 244.351562 C 268.488281 248.929688 264.738281 252.675781 260.15625 252.675781 Z M 260.15625 211.050781 L 118.507812 211.050781 C 113.921875 211.050781 110.171875 207.304688 110.171875 202.726562 C 110.171875 198.148438 113.921875 194.402344 118.507812 194.402344 L 260.15625 194.402344 C 264.738281 194.402344 268.488281 198.148438 268.488281 202.726562 C 268.488281 207.304688 264.738281 211.050781 260.15625 211.050781 Z M 260.15625 169.429688 L 118.507812 169.429688 C 113.921875 169.429688 110.171875 165.683594 110.171875 161.101562 C 110.171875 156.523438 113.921875 152.777344 118.507812 152.777344 L 260.15625 152.777344 C 264.738281 152.777344 268.488281 156.523438 268.488281 161.101562 C 268.488281 165.683594 264.738281 169.429688 260.15625 169.429688 Z M 126.839844 65.367188 L 126.839844 57.042969 C 126.839844 52.460938 130.589844 48.714844 135.171875 48.714844 L 164.335938 48.714844 C 168.917969 48.714844 172.667969 44.96875 172.667969 40.390625 L 172.667969 32.066406 C 172.667969 27.488281 174.332031 23.324219 177.664062 19.996094 C 181 17.082031 185.164062 15.417969 189.746094 15.417969 C 198.496094 15.832031 205.996094 23.742188 205.996094 32.898438 L 205.996094 40.390625 C 205.996094 44.96875 209.746094 48.714844 214.328125 48.714844 L 243.492188 48.714844 C 248.074219 48.714844 251.824219 52.460938 251.824219 57.042969 L 251.824219 65.367188 C 251.824219 69.945312 248.074219 73.691406 243.492188 73.691406 L 135.171875 73.691406 C 130.589844 73.691406 126.839844 69.945312 126.839844 65.367188 Z M 126.839844 65.367188 "/>
</g>
</g>
</svg>
