<?xml version="1.0" encoding="UTF-8"?>
<svg xmlns="http://www.w3.org/2000/svg" xmlns:xlink="http://www.w3.org/1999/xlink" width="375pt" height="374.999991pt" viewBox="0 0 375 374.999991" version="1.2">
<defs>
<clipPath id="clip1">
  <path d="M 19.101562 10.769531 L 288 10.769531 L 288 353 L 19.101562 353 Z M 19.101562 10.769531 "/>
</clipPath>
</defs>
<g id="surface1">
<g clip-path="url(#clip1)" clip-rule="nonzero">
<path style=" stroke:none;fill-rule:nonzero;fill:rgb(0%,0%,0%);fill-opacity:1;" d="M 72.574219 352.714844 L 125.5625 352.714844 C 122.914062 349.636719 120.554688 346.328125 118.53125 342.761719 C 116.738281 339.621094 115.230469 336.285156 113.980469 332.832031 L 72.574219 332.832031 C 54.019531 332.832031 38.910156 317.710938 38.910156 299.109375 L 38.910156 64.375 C 38.910156 45.773438 54.019531 30.65625 72.574219 30.65625 L 185.179688 30.65625 L 185.179688 76.214844 C 185.179688 96.726562 201.828125 113.445312 222.316406 113.445312 L 267.761719 113.445312 L 267.761719 238.203125 L 287.570312 238.203125 L 287.570312 103.488281 C 287.570312 102.832031 287.511719 102.203125 287.398438 101.578125 L 287.398438 101.546875 C 287.226562 100.722656 286.914062 99.894531 286.542969 99.152344 C 286.429688 98.925781 286.316406 98.753906 286.203125 98.554688 C 285.804688 97.839844 285.320312 97.125 284.722656 96.5 C 284.695312 96.46875 284.695312 96.46875 284.667969 96.46875 L 229.628906 41.265625 L 202.082031 13.679688 C 201.457031 13.050781 200.746094 12.539062 200.003906 12.140625 C 199.804688 12.023438 199.605469 11.882812 199.40625 11.824219 C 198.667969 11.453125 197.898438 11.140625 197.074219 10.96875 C 197.019531 10.96875 196.933594 10.96875 196.875 10.941406 C 196.277344 10.796875 195.679688 10.742188 195.082031 10.742188 L 72.574219 10.742188 C 43.09375 10.742188 19.101562 34.820312 19.101562 64.375 L 19.101562 299.109375 C 19.101562 328.667969 43.09375 352.714844 72.574219 352.714844 Z M 222.316406 93.5625 C 212.753906 93.5625 204.984375 85.773438 204.984375 76.214844 L 204.984375 44.691406 L 218.644531 58.355469 L 253.734375 93.5625 Z M 222.316406 93.5625 "/>
</g>
<path style=" stroke:none;fill-rule:nonzero;fill:rgb(0%,0%,0%);fill-opacity:1;" d="M 230.484375 143.714844 L 76.1875 143.714844 C 70.722656 143.714844 66.285156 148.195312 66.285156 153.671875 C 66.285156 159.148438 70.722656 163.597656 76.1875 163.597656 L 230.484375 163.597656 C 235.945312 163.597656 240.386719 159.148438 240.386719 153.671875 C 240.386719 148.195312 235.945312 143.714844 230.484375 143.714844 Z M 230.484375 143.714844 "/>
<path style=" stroke:none;fill-rule:nonzero;fill:rgb(0%,0%,0%);fill-opacity:1;" d="M 230.484375 209.988281 L 76.1875 209.988281 C 70.722656 209.988281 66.285156 214.464844 66.285156 219.945312 C 66.285156 225.421875 70.722656 229.84375 76.1875 229.84375 L 230.484375 229.84375 C 235.945312 229.84375 240.386719 225.421875 240.386719 219.945312 C 240.386719 214.464844 235.945312 209.988281 230.484375 209.988281 Z M 230.484375 209.988281 "/>
<path style=" stroke:none;fill-rule:nonzero;fill:rgb(0%,0%,0%);fill-opacity:1;" d="M 292.832031 311.320312 L 303.988281 311.320312 L 303.988281 298.253906 C 303.988281 297.226562 304.015625 296.117188 304.046875 295.089844 C 303.449219 296.117188 302.851562 297.171875 302.167969 298.339844 Z M 292.832031 311.320312 "/>
<path style=" stroke:none;fill-rule:nonzero;fill:rgb(0%,0%,0%);fill-opacity:1;" d="M 305.867188 249.839844 L 172.941406 249.839844 C 144.769531 249.839844 121.917969 272.75 121.917969 301.050781 L 121.917969 311.664062 C 121.917969 319.222656 123.597656 326.382812 126.527344 332.832031 C 128.121094 336.371094 130.144531 339.707031 132.476562 342.761719 C 135.351562 346.527344 138.738281 349.863281 142.523438 352.714844 C 151.03125 359.050781 161.53125 362.84375 172.941406 362.84375 L 305.867188 362.84375 C 334.066406 362.84375 356.890625 339.9375 356.890625 311.664062 L 356.890625 301.050781 C 356.917969 272.75 334.066406 249.839844 305.867188 249.839844 Z M 234.4375 303.105469 C 235.351562 304.472656 236.144531 305.785156 236.941406 307.070312 C 237.511719 306.070312 238.136719 305.101562 238.707031 304.132812 L 239.390625 303.078125 L 244 296.03125 L 252.253906 296.03125 L 241.070312 311.949219 L 251.769531 327.753906 L 252.539062 328.921875 L 244 328.921875 L 239.191406 321.476562 C 238.253906 320.109375 237.425781 318.738281 236.542969 317.253906 C 235.945312 318.253906 235.351562 319.222656 234.753906 320.164062 L 229.175781 328.894531 L 220.808594 328.894531 L 232.445312 312.148438 L 221.320312 296.03125 L 229.742188 296.03125 Z M 213.976562 283.734375 L 221.691406 282.992188 L 221.347656 284.21875 C 219.925781 289.410156 217.164062 296.488281 215.289062 299.679688 L 215.058594 300.050781 L 209.625 300.707031 L 210.109375 299.367188 C 211.503906 295.601562 213.152344 289.070312 213.863281 284.445312 Z M 200.632812 299.394531 C 201.914062 295.800781 203.648438 289.238281 204.386719 284.445312 L 204.472656 283.734375 L 212.183594 282.992188 L 211.84375 284.21875 C 210.449219 289.410156 207.660156 296.457031 205.8125 299.679688 L 205.582031 300.050781 L 200.148438 300.707031 Z M 175.019531 291.492188 C 178.605469 287.929688 183.386719 285.730469 188.851562 285.074219 C 190.246094 284.847656 191.667969 284.734375 193.0625 284.734375 L 193.945312 284.734375 L 193.945312 291.152344 L 193.003906 291.121094 C 191.867188 291.039062 190.359375 291.121094 188.964844 291.351562 C 182.363281 292.464844 177.582031 296.628906 175.789062 302.734375 C 178.179688 300.707031 181.253906 299.652344 184.609375 299.652344 C 192.519531 299.652344 198.042969 305.53125 198.042969 314.03125 C 198.042969 321.589844 192.890625 329.578125 183.328125 329.578125 C 173.824219 329.578125 167.707031 322.277344 167.707031 310.921875 C 167.707031 303.105469 170.296875 296.171875 175.019531 291.492188 Z M 149.265625 285.359375 L 154.957031 285.359375 L 154.957031 328.921875 L 147.757812 328.921875 L 147.757812 292.890625 L 140.699219 296.714844 L 139.164062 290.667969 Z M 282.019531 328.921875 L 253.675781 328.921875 L 253.675781 324.1875 L 258.34375 319.625 C 260.675781 317.398438 262.667969 315.457031 264.433594 313.660156 C 270.75 307.15625 273.566406 302.90625 273.597656 298.398438 C 273.597656 295.402344 272.515625 291.863281 267.761719 291.238281 C 267.277344 291.179688 266.796875 291.121094 266.226562 291.121094 C 262.667969 291.121094 259.738281 292.890625 257.917969 294.433594 L 257.035156 295.175781 L 254.5 289.554688 L 255.011719 289.097656 C 258.398438 286.246094 262.78125 284.617188 267.363281 284.617188 C 267.507812 284.617188 267.621094 284.675781 267.761719 284.675781 C 272.230469 284.789062 275.503906 286.359375 277.664062 288.699219 C 279.914062 291.152344 280.996094 294.433594 280.996094 297.65625 C 280.996094 302.164062 279.203125 306.101562 276.214844 310.09375 C 273.683594 313.488281 270.296875 316.914062 266.367188 320.734375 L 264.519531 322.449219 L 282.019531 322.449219 Z M 316.910156 317.511719 L 311.074219 317.511719 L 311.074219 328.921875 L 303.988281 328.921875 L 303.988281 317.511719 L 284.636719 317.511719 L 284.636719 312.632812 L 284.78125 312.433594 L 286.460938 310.039062 L 303.648438 285.386719 L 311.074219 285.386719 L 311.074219 311.320312 L 316.910156 311.320312 Z M 323.738281 300.050781 L 318.304688 300.707031 L 318.785156 299.394531 C 320.039062 295.800781 321.804688 289.238281 322.542969 284.445312 L 322.628906 283.734375 L 330.339844 282.992188 L 330 284.21875 C 328.574219 289.410156 325.816406 296.457031 323.964844 299.679688 Z M 339.503906 284.21875 C 338.082031 289.410156 335.292969 296.488281 333.441406 299.679688 L 333.214844 300.050781 L 327.777344 300.707031 L 328.261719 299.367188 C 329.65625 295.601562 331.308594 289.070312 332.019531 284.445312 L 332.105469 283.734375 L 339.816406 282.992188 Z M 339.503906 284.21875 "/>
<path style=" stroke:none;fill-rule:nonzero;fill:rgb(0%,0%,0%);fill-opacity:1;" d="M 183.328125 323.503906 C 187.65625 323.503906 190.585938 319.824219 190.585938 314.34375 C 190.585938 308.980469 187.625 305.644531 182.875 305.644531 C 179.886719 305.644531 177.011719 307.46875 175.589844 310.292969 C 175.21875 310.921875 175.019531 311.636719 175.019531 312.40625 C 175.164062 319.339844 178.265625 323.503906 183.328125 323.503906 Z M 183.328125 323.503906 "/>
</g>
</svg>
