<?xml version="1.0" encoding="UTF-8"?>
<svg xmlns="http://www.w3.org/2000/svg" xmlns:xlink="http://www.w3.org/1999/xlink" width="375pt" height="374.999991pt" viewBox="0 0 375 374.999991" version="1.2">
<defs>
<clipPath id="clip1">
  <path d="M 13.308594 143 L 362.058594 143 L 362.058594 306 L 13.308594 306 Z M 13.308594 143 "/>
</clipPath>
<clipPath id="clip2">
  <path d="M 222 19.167969 L 224 19.167969 L 224 20 L 222 20 Z M 222 19.167969 "/>
</clipPath>
<clipPath id="clip3">
  <path d="M 222 19.167969 L 223 19.167969 L 223 20 L 222 20 Z M 222 19.167969 "/>
</clipPath>
<clipPath id="clip4">
  <path d="M 223 19.167969 L 224 19.167969 L 224 20 L 223 20 Z M 223 19.167969 "/>
</clipPath>
<clipPath id="clip5">
  <path d="M 97 19.167969 L 222 19.167969 L 222 182 L 97 182 Z M 97 19.167969 "/>
</clipPath>
<clipPath id="clip6">
  <path d="M 97 274 L 278 274 L 278 337.167969 L 97 337.167969 Z M 97 274 "/>
</clipPath>
<clipPath id="clip7">
  <path d="M 217 19.167969 L 278 19.167969 L 278 81 L 217 81 Z M 217 19.167969 "/>
</clipPath>
</defs>
<g id="surface1">
<path style=" stroke:none;fill-rule:nonzero;fill:rgb(0%,0%,0%);fill-opacity:1;" d="M 357.972656 136.367188 C 352.785156 127.484375 343.152344 121.480469 332.121094 121.480469 L 277.691406 121.480469 L 277.691406 135.570312 L 352.460938 135.570312 C 354.386719 135.570312 356.234375 135.851562 357.972656 136.367188 "/>
<path style=" stroke:none;fill-rule:nonzero;fill:rgb(0%,0%,0%);fill-opacity:1;" d="M 43.253906 121.480469 C 32.226562 121.480469 22.59375 127.480469 17.402344 136.367188 C 19.140625 135.851562 20.996094 135.570312 22.917969 135.570312 L 97.6875 135.570312 L 97.6875 121.480469 L 43.253906 121.480469 "/>
<g clip-path="url(#clip1)" clip-rule="nonzero">
<path style=" stroke:none;fill-rule:nonzero;fill:rgb(0%,0%,0%);fill-opacity:1;" d="M 282.722656 219.875 C 288.53125 219.875 293.242188 224.578125 293.242188 230.375 C 293.242188 236.175781 288.53125 240.878906 282.722656 240.878906 C 276.910156 240.878906 272.199219 236.175781 272.199219 230.375 C 272.199219 224.578125 276.910156 219.875 282.722656 219.875 Z M 322.222656 219.875 C 328.035156 219.875 332.742188 224.578125 332.742188 230.375 C 332.742188 236.175781 328.035156 240.878906 322.222656 240.878906 C 316.414062 240.878906 311.699219 236.175781 311.699219 230.375 C 311.699219 224.578125 316.414062 219.875 322.222656 219.875 Z M 98.148438 274.6875 L 91.742188 274.6875 C 89.421875 274.6875 87.542969 272.808594 87.542969 270.496094 C 87.542969 268.183594 89.421875 266.304688 91.742188 266.304688 L 286.550781 266.304688 C 288.871094 266.304688 290.75 268.183594 290.75 270.496094 C 290.75 272.808594 288.871094 274.6875 286.550781 274.6875 L 276.367188 274.6875 C 276.941406 276.371094 277.261719 278.230469 277.261719 280.203125 L 277.261719 305.179688 L 352.460938 305.179688 C 357.753906 305.179688 362.058594 301.558594 362.058594 297.101562 L 362.058594 152.023438 C 362.058594 147.570312 357.753906 143.949219 352.460938 143.949219 L 277.691406 143.949219 L 277.691406 180.550781 C 277.691406 180.78125 277.675781 180.996094 277.664062 181.222656 L 351.308594 181.222656 C 353.628906 181.222656 355.507812 183.097656 355.507812 185.414062 C 355.507812 187.726562 353.628906 189.605469 351.308594 189.605469 L 275.039062 189.605469 C 272.992188 192.585938 269.933594 194.457031 266.453125 194.457031 L 108.929688 194.457031 C 105.449219 194.457031 102.386719 192.585938 100.339844 189.605469 L 23.207031 189.605469 C 20.886719 189.605469 19.007812 187.726562 19.007812 185.414062 C 19.007812 183.097656 20.886719 181.222656 23.207031 181.222656 L 97.714844 181.222656 C 97.707031 180.996094 97.6875 180.78125 97.6875 180.550781 L 97.6875 143.949219 L 22.917969 143.949219 C 17.628906 143.949219 13.320312 147.570312 13.320312 152.023438 L 13.320312 297.101562 C 13.320312 301.558594 17.628906 305.179688 22.917969 305.179688 L 97.253906 305.179688 L 97.253906 280.203125 C 97.253906 278.230469 97.574219 276.371094 98.148438 274.6875 "/>
</g>
<g clip-path="url(#clip2)" clip-rule="nonzero">
<path style=" stroke:none;fill-rule:nonzero;fill:rgb(0%,0%,0%);fill-opacity:1;" d="M 222.96875 19.472656 C 223.035156 19.5 223.097656 19.53125 223.164062 19.558594 C 223.097656 19.53125 223.035156 19.5 222.96875 19.472656 "/>
</g>
<path style=" stroke:none;fill-rule:nonzero;fill:rgb(0%,0%,0%);fill-opacity:1;" d="M 276.480469 72.953125 L 276.222656 72.695312 C 276.328125 72.785156 276.410156 72.890625 276.507812 72.988281 C 276.496094 72.976562 276.492188 72.964844 276.480469 72.953125 "/>
<path style=" stroke:none;fill-rule:nonzero;fill:rgb(0%,0%,0%);fill-opacity:1;" d="M 273.519531 80.089844 C 273.511719 80.089844 273.503906 80.089844 273.492188 80.089844 L 269.292969 80.089844 L 269.292969 180.554688 C 269.292969 180.789062 269.265625 181 269.25 181.222656 L 277.664062 181.222656 C 277.675781 181 277.691406 180.78125 277.691406 180.554688 L 277.691406 76.179688 C 277.546875 78.359375 275.746094 80.089844 273.519531 80.089844 "/>
<g clip-path="url(#clip3)" clip-rule="nonzero">
<path style=" stroke:none;fill-rule:nonzero;fill:rgb(0%,0%,0%);fill-opacity:1;" d="M 222.222656 19.253906 C 222.234375 19.253906 222.25 19.253906 222.261719 19.257812 C 222.25 19.253906 222.234375 19.253906 222.222656 19.253906 "/>
</g>
<g clip-path="url(#clip4)" clip-rule="nonzero">
<path style=" stroke:none;fill-rule:nonzero;fill:rgb(0%,0%,0%);fill-opacity:1;" d="M 223.652344 19.824219 C 223.714844 19.859375 223.773438 19.894531 223.835938 19.9375 C 223.773438 19.894531 223.714844 19.859375 223.652344 19.824219 "/>
</g>
<g clip-path="url(#clip5)" clip-rule="nonzero">
<path style=" stroke:none;fill-rule:nonzero;fill:rgb(0%,0%,0%);fill-opacity:1;" d="M 97.6875 121.480469 L 97.6875 180.554688 C 97.6875 180.78125 97.707031 181 97.714844 181.222656 L 106.128906 181.222656 C 106.113281 181 106.085938 180.789062 106.085938 180.554688 L 106.085938 33.074219 C 106.085938 29.753906 107.796875 27.554688 108.929688 27.554688 L 217.230469 27.554688 L 217.230469 23.367188 C 217.230469 21.664062 218.257812 20.132812 219.832031 19.488281 C 220.378906 19.265625 220.953125 19.171875 221.523438 19.183594 C 221.488281 19.183594 221.457031 19.175781 221.429688 19.175781 L 108.929688 19.175781 C 102.625 19.175781 97.6875 25.28125 97.6875 33.074219 L 97.6875 121.480469 "/>
</g>
<path style=" stroke:none;fill-rule:nonzero;fill:rgb(0%,0%,0%);fill-opacity:1;" d="M 100.339844 189.605469 C 102.386719 192.585938 105.445312 194.457031 108.929688 194.457031 L 266.449219 194.457031 C 269.933594 194.457031 272.992188 192.585938 275.039062 189.605469 L 100.339844 189.605469 "/>
<g clip-path="url(#clip6)" clip-rule="nonzero">
<path style=" stroke:none;fill-rule:nonzero;fill:rgb(0%,0%,0%);fill-opacity:1;" d="M 277.257812 305.179688 L 277.257812 280.203125 C 277.257812 278.234375 276.941406 276.371094 276.367188 274.6875 L 266.011719 274.6875 C 267.148438 274.6875 268.859375 276.890625 268.859375 280.203125 L 268.859375 323.273438 C 268.859375 326.585938 267.148438 328.789062 266.011719 328.789062 L 108.5 328.789062 C 107.363281 328.789062 105.652344 326.585938 105.652344 323.273438 L 105.652344 280.203125 C 105.652344 276.890625 107.363281 274.6875 108.5 274.6875 L 98.148438 274.6875 C 97.574219 276.371094 97.253906 278.234375 97.253906 280.203125 L 97.253906 323.273438 C 97.253906 331.0625 102.195312 337.167969 108.5 337.167969 L 266.011719 337.167969 C 272.320312 337.167969 277.257812 331.0625 277.257812 323.273438 L 277.257812 305.179688 "/>
</g>
<path style=" stroke:none;fill-rule:nonzero;fill:rgb(0%,0%,0%);fill-opacity:1;" d="M 146.785156 103.304688 L 230.96875 103.304688 C 233.289062 103.304688 235.167969 101.429688 235.167969 99.117188 C 235.167969 96.800781 233.289062 94.925781 230.96875 94.925781 L 146.785156 94.925781 C 144.464844 94.925781 142.585938 96.800781 142.585938 99.117188 C 142.585938 101.429688 144.464844 103.304688 146.785156 103.304688 "/>
<path style=" stroke:none;fill-rule:nonzero;fill:rgb(0%,0%,0%);fill-opacity:1;" d="M 145.703125 139.65625 L 229.890625 139.65625 C 232.207031 139.65625 234.089844 137.78125 234.089844 135.46875 C 234.089844 133.152344 232.207031 131.277344 229.890625 131.277344 L 145.703125 131.277344 C 143.386719 131.277344 141.503906 133.152344 141.503906 135.46875 C 141.503906 137.78125 143.386719 139.65625 145.703125 139.65625 "/>
<g clip-path="url(#clip7)" clip-rule="nonzero">
<path style=" stroke:none;fill-rule:nonzero;fill:rgb(0%,0%,0%);fill-opacity:1;" d="M 263.433594 71.710938 L 228.890625 71.710938 C 227.09375 71.710938 225.628906 70.164062 225.628906 68.257812 L 225.628906 33.5625 Z M 217.230469 23.367188 L 217.230469 68.257812 C 217.230469 74.785156 222.457031 80.089844 228.890625 80.089844 L 273.492188 80.089844 C 273.503906 80.089844 273.511719 80.089844 273.519531 80.089844 C 275.746094 80.089844 277.546875 78.359375 277.691406 76.179688 C 277.699219 76.085938 277.722656 76 277.722656 75.902344 C 277.722656 74.761719 277.246094 73.746094 276.507812 72.988281 C 276.410156 72.890625 276.328125 72.785156 276.222656 72.695312 C 276.214844 72.691406 276.210938 72.683594 276.203125 72.675781 L 224.414062 20.417969 C 224.230469 20.234375 224.035156 20.082031 223.835938 19.9375 C 223.773438 19.894531 223.714844 19.859375 223.652344 19.824219 C 223.496094 19.726562 223.332031 19.636719 223.164062 19.558594 C 223.097656 19.53125 223.035156 19.5 222.96875 19.472656 C 222.738281 19.382812 222.5 19.304688 222.261719 19.257812 C 222.25 19.253906 222.234375 19.253906 222.222656 19.253906 C 221.992188 19.207031 221.753906 19.1875 221.523438 19.183594 C 220.953125 19.171875 220.378906 19.265625 219.832031 19.488281 C 218.257812 20.132812 217.230469 21.664062 217.230469 23.367188 "/>
</g>
</g>
</svg>
